<svg width="21" height="21" viewBox="0 0 21 21" fill="none" xmlns="http://www.w3.org/2000/svg">
<path d="M9.66369 0L13.0352 0V15.7301C11.3082 16.0626 10.0369 16.1935 8.66135 16.1935C4.54352 16.1891 2.39999 14.3164 2.39999 10.7198C2.39999 7.25446 4.67369 5.00549 8.19706 5.00549C8.74379 5.00549 9.16035 5.04924 9.66369 5.18051V0ZM9.78184 8.01521C9.38698 7.88395 9.06155 7.8402 8.64499 7.8402C6.93972 7.8402 5.95474 8.89905 5.95474 10.7547C5.95474 12.5613 6.89633 13.5589 8.6233 13.5589C8.99646 13.5589 9.3002 13.5374 9.78184 13.4718V8.01521Z" fill="#2BA977"/>
<path d="M18.5485 5.42783V13.3036C18.5485 16.0159 18.3489 17.3202 17.7632 18.4447C17.2164 19.5259 16.4961 20.2076 15.0078 20.9606L11.8793 19.4598C13.3676 18.7558 14.0879 18.1336 14.5479 17.1842C15.0295 16.2133 15.1814 15.0888 15.1814 12.131V5.42783H18.5485Z" fill="#2BA977"/>
<path d="M14.8416 0L18.2131 0V3.48722H14.8416V0Z" fill="#2BA977"/>
</svg>
