<svg width="21" height="17" viewBox="0 0 21 17" fill="none" xmlns="http://www.w3.org/2000/svg">
<g clip-path="url(#clip0_638_3133)">
<path d="M20.5665 6.69508C20.0936 6.36697 19.01 6.24393 18.1627 6.40798C18.0642 5.5877 17.611 4.86996 16.8229 4.23424L16.3697 3.90613L16.0545 4.37779C15.6604 4.993 15.4634 5.85429 15.5225 6.67457C15.5422 6.96167 15.6407 7.47434 15.9362 7.9255C15.6604 8.08955 15.089 8.29462 14.3403 8.29462H0.0947272L0.0553205 8.45868C-0.0826031 9.27896 -0.0826031 11.8423 1.53307 13.811C2.75468 15.308 4.56739 16.0668 6.9515 16.0668C12.1138 16.0668 15.9362 13.5854 17.7292 9.0944C18.4386 9.1149 19.9557 9.0944 20.7242 7.55637C20.7439 7.51536 20.7833 7.43333 20.9212 7.12573L21 6.96167L20.5665 6.69508ZM11.4833 0.912109H9.3159V2.96281H11.4833V0.912109ZM11.4833 3.37295H9.3159V5.42365H11.4833V3.37295ZM8.92184 3.37295H6.75446V5.42365H8.92184V3.37295ZM6.3604 3.37295H4.19303V5.42365H6.3604V3.37295ZM3.79896 5.83379H1.63159V7.88448H3.79896V5.83379ZM6.3604 5.83379H4.19303V7.88448H6.3604V5.83379ZM8.92184 5.83379H6.75446V7.88448H8.92184V5.83379ZM11.4833 5.83379H9.3159V7.88448H11.4833V5.83379ZM14.0447 5.83379H11.8773V7.88448H14.0447V5.83379Z" fill="#2396ED"/>
</g>
<defs>
<clipPath id="clip0_638_3133">
<rect width="21" height="15.1758" fill="white" transform="translate(0 0.912109)"/>
</clipPath>
</defs>
</svg>
