<svg width="21" height="21" viewBox="0 0 21 21" fill="none" xmlns="http://www.w3.org/2000/svg">
<path fill-rule="evenodd" clip-rule="evenodd" d="M16.5105 3.07683C16.3729 3.05578 16.2493 3.1307 16.175 3.21611C16.1006 3.30151 16.0491 3.40736 16.0041 3.54081C15.9265 3.77162 15.6412 4.62847 14.6126 5.47538C13.584 6.3223 11.8103 7.36845 8.73602 7.44484C6.40015 7.47155 4.97011 5.96855 4.375 3.93748V5.13857L4.36551 8.5121L4.38449 8.55654C4.38449 8.55654 4.55196 8.91582 4.375 9.39992C4.19804 9.88402 3.50017 10.5141 1.94065 10.9662L1.75 11.0209L1.78623 11.2149C1.87273 11.6846 2.21754 12.166 2.72656 12.659C3.23558 13.1519 3.91712 13.6505 4.71074 14.1013C6.29797 15.003 8.33091 15.7155 10.3061 15.7488C12.2813 15.7821 14.2139 15.1151 15.4926 13.2674C16.7713 11.4197 17.3949 8.21381 16.8841 3.62114L16.8832 3.61943V3.61772C16.867 3.49161 16.8382 3.38394 16.7866 3.28959C16.735 3.19525 16.6482 3.09787 16.5105 3.07683Z" fill="url(#paint0_linear_638_3161)"/>
<path opacity="0.2" d="M7.19055 7.43665L4.37073 10.2565L9.83606 15.7218C9.99279 15.7327 10.1498 15.7465 10.306 15.7491C12.2812 15.7825 14.2141 15.1154 15.4928 13.2677C15.6693 13.0126 15.8321 12.7287 15.9824 12.4218L11.0845 7.5238L9.18066 9.42676L7.19055 7.43665Z" fill="url(#paint1_linear_638_3161)"/>
<path fill-rule="evenodd" clip-rule="evenodd" d="M7 12.6884C9.87113 13.3011 11.3332 12.733 12.189 12.0279C11.963 11.7165 11.8125 11.375 11.8125 11.375C11.8125 11.375 12.5797 11.6723 12.9327 12.1585C13.2848 12.6434 13.0634 12.9421 12.9713 13.5625C12.7662 13.0176 12.3834 12.8133 12.3315 12.5968C11.562 13.7319 9.64465 13.6847 7 12.6884Z" fill="url(#paint2_linear_638_3161)"/>
<path opacity="0.2" fill-rule="evenodd" clip-rule="evenodd" d="M17.0591 6.49414C17.0231 9.35473 16.4378 11.4647 15.4928 12.8302C14.2141 14.6779 12.2812 15.345 10.306 15.3116C8.33083 15.2783 6.29805 14.5659 4.71082 13.6642C3.9172 13.2133 3.23571 12.7147 2.72668 12.2218C2.29568 11.8044 1.98412 11.3947 1.8457 10.9939L1.75 11.0212L1.78589 11.2152C1.87239 11.685 2.21766 12.1664 2.72668 12.6593C3.23571 13.1522 3.9172 13.6508 4.71082 14.1017C6.29805 15.0034 8.33083 15.7158 10.306 15.7491C12.2812 15.7825 14.2141 15.1154 15.4928 13.2677C16.4852 11.8338 17.0799 9.57748 17.0591 6.49414ZM4.36646 8.07751L4.3656 8.51245L4.3844 8.55688C4.3844 8.55688 4.41281 8.63073 4.43396 8.73975C4.49995 8.37317 4.3844 8.11938 4.3844 8.11938L4.36646 8.07751Z" fill="black"/>
<path d="M16.1734 15.4877L16.5787 14.6806C15.0709 13.5775 12.2561 12.4581 12.2561 12.4581L11.8126 12.7019C11.8126 12.7019 14.3683 14.9686 16.1734 15.4877Z" fill="url(#paint3_linear_638_3161)"/>
<path d="M16.1875 14L15.9762 14.139C15.7804 14.2461 15.6216 14.4283 15.4928 14.6389C15.3454 14.9851 15.2872 15.2016 15.3125 15.5399L15.6188 15.4875C15.6188 15.4875 17.2178 15.9462 17.9747 16.1875L18.0633 16.0169L18.375 15.4136L16.1875 14.2929V14Z" fill="url(#paint4_linear_638_3161)"/>
<path d="M20.5625 18.375C20.0169 16.6024 19.8234 15.195 18.3977 15.3203C17.2488 15.4212 17.1684 16.9969 18.3556 17.4317C19.4993 17.8506 20.5625 18.375 20.5625 18.375Z" fill="url(#paint5_radial_638_3161)"/>
<path fill-rule="evenodd" clip-rule="evenodd" d="M5.90625 7C5.42006 7 4.93124 7.16089 4.5581 7.49261C4.18496 7.82433 3.9374 8.33045 3.9375 8.96875C3.9374 9.60705 4.18496 10.1132 4.5581 10.4449C4.93124 10.7766 5.42006 10.9375 5.90625 10.9375C6.39244 10.9375 6.8821 10.7766 7.25524 10.4449C7.62838 10.1132 7.8751 9.60705 7.875 8.96875C7.8751 8.33045 7.62838 7.82433 7.25524 7.49261C6.8821 7.16089 6.39244 7 5.90625 7Z" fill="url(#paint6_radial_638_3161)"/>
<path fill-rule="evenodd" clip-rule="evenodd" d="M2.23175 8.31258C2.12498 8.31162 2.02027 8.31912 1.91849 8.33525C1.64709 8.37829 1.39579 8.48084 1.17915 8.63669C0.312556 9.26008 0.0843309 10.6729 1.15473 12.1524C2.22512 13.6318 3.6413 13.8614 4.50789 13.2381C5.37448 12.6147 5.60355 11.2018 4.53315 9.72238C3.83071 8.75148 2.97914 8.31909 2.23175 8.31258Z" fill="url(#paint7_radial_638_3161)"/>
<path fill-rule="evenodd" clip-rule="evenodd" d="M9.62459 7C9.08343 7 8.53955 7.17891 8.12547 7.54698C7.7114 7.91504 7.4375 8.47596 7.4375 9.18791C7.4375 9.89985 7.7114 10.46 8.12547 10.828C8.53955 11.1961 9.08343 11.375 9.62459 11.375C10.1658 11.375 10.7096 11.1961 11.1237 10.828C11.5378 10.46 11.8125 9.89985 11.8125 9.18791C11.8125 8.47596 11.5378 7.91504 11.1237 7.54698C10.7096 7.17891 10.1658 7 9.62459 7Z" fill="url(#paint8_radial_638_3161)"/>
<path fill-rule="evenodd" clip-rule="evenodd" d="M10.2812 8.3125C10.0132 8.3125 9.7423 8.40111 9.53357 8.58665C9.32484 8.77219 9.1875 9.05795 9.1875 9.40625C9.1875 9.75455 9.32484 10.0403 9.53357 10.2259C9.7423 10.4114 10.0132 10.5 10.2812 10.5C10.5493 10.5 10.8202 10.4114 11.0289 10.2259C11.2377 10.0403 11.375 9.75455 11.375 9.40625C11.375 9.05795 11.2377 8.77219 11.0289 8.58665C10.8202 8.40111 10.5493 8.3125 10.2812 8.3125Z" fill="url(#paint9_radial_638_3161)"/>
<path fill-rule="evenodd" clip-rule="evenodd" d="M6.5625 8.3125C6.34809 8.3125 6.13134 8.38339 5.96436 8.53182C5.79737 8.68025 5.6875 8.90886 5.6875 9.1875C5.6875 9.46614 5.79737 9.69475 5.96436 9.84318C6.13134 9.99161 6.34809 10.0625 6.5625 10.0625C6.77691 10.0625 6.99366 9.99161 7.16064 9.84318C7.32763 9.69475 7.4375 9.46614 7.4375 9.1875C7.4375 8.90886 7.32763 8.68025 7.16064 8.53182C6.99366 8.38339 6.77691 8.3125 6.5625 8.3125Z" fill="url(#paint10_radial_638_3161)"/>
<defs>
<linearGradient id="paint0_linear_638_3161" x1="15.1865" y1="14.6934" x2="2.1875" y2="3.49998" gradientUnits="userSpaceOnUse">
<stop stop-color="#6C5548"/>
<stop offset="1" stop-color="#BB9D71"/>
</linearGradient>
<linearGradient id="paint1_linear_638_3161" x1="6.67756" y1="7.8015" x2="13.5625" y2="14.875" gradientUnits="userSpaceOnUse">
<stop/>
<stop offset="1" stop-opacity="0"/>
</linearGradient>
<linearGradient id="paint2_linear_638_3161" x1="12.4431" y1="11.9442" x2="7.67619" y2="12.8307" gradientUnits="userSpaceOnUse">
<stop/>
<stop offset="1" stop-opacity="0"/>
</linearGradient>
<linearGradient id="paint3_linear_638_3161" x1="15.1988" y1="13.5462" x2="14.7234" y2="14.8269" gradientUnits="userSpaceOnUse">
<stop stop-color="#FFA92D"/>
<stop offset="1" stop-color="#CD7223"/>
</linearGradient>
<linearGradient id="paint4_linear_638_3161" x1="16.3363" y1="15.7167" x2="16.7768" y2="14.6602" gradientUnits="userSpaceOnUse">
<stop stop-color="#6F8181"/>
<stop offset="1" stop-color="#B0B8B8"/>
</linearGradient>
<radialGradient id="paint5_radial_638_3161" cx="0" cy="0" r="1" gradientUnits="userSpaceOnUse" gradientTransform="translate(18.0576 16.4589) rotate(-107.107) scale(2.11664 2.1394)">
<stop stop-color="#334545"/>
<stop offset="1" stop-color="#172525"/>
</radialGradient>
<radialGradient id="paint6_radial_638_3161" cx="0" cy="0" r="1" gradientUnits="userSpaceOnUse" gradientTransform="translate(5.90625 8.96875) scale(1.96875)">
<stop stop-color="#CFD5D5"/>
<stop offset="1" stop-color="#FCFCFC"/>
</radialGradient>
<radialGradient id="paint7_radial_638_3161" cx="0" cy="0" r="1" gradientUnits="userSpaceOnUse" gradientTransform="translate(1.5295 9.42121) scale(2.40625 2.625)">
<stop stop-color="#334545"/>
<stop offset="1" stop-color="#172525"/>
</radialGradient>
<radialGradient id="paint8_radial_638_3161" cx="0" cy="0" r="1" gradientUnits="userSpaceOnUse" gradientTransform="translate(9.625 9.1875) scale(2.1875)">
<stop stop-color="#CFD5D5"/>
<stop offset="1" stop-color="#FCFCFC"/>
</radialGradient>
<radialGradient id="paint9_radial_638_3161" cx="0" cy="0" r="1" gradientUnits="userSpaceOnUse" gradientTransform="translate(10.2812 9.40625) scale(1.09375)">
<stop stop-color="#334545"/>
<stop offset="1" stop-color="#172525"/>
</radialGradient>
<radialGradient id="paint10_radial_638_3161" cx="0" cy="0" r="1" gradientUnits="userSpaceOnUse" gradientTransform="translate(6.5625 9.1875) scale(0.875)">
<stop stop-color="#334545"/>
<stop offset="1" stop-color="#172525"/>
</radialGradient>
</defs>
</svg>
