<svg width="21" height="25" viewBox="0 0 21 25" fill="none" xmlns="http://www.w3.org/2000/svg">
<path d="M16.6891 16.9798C15.86 17.7245 16.7826 18.479 17.6002 17.9983C17.7823 17.8138 17.5953 17.1651 16.6899 16.9798L16.6891 16.9798ZM4.78815 18.1821C5.43107 18.7389 6.42585 18.0435 6.72354 17.2669C6.10031 16.4386 3.76555 17.2972 4.78815 18.182V18.1821ZM17.0303 16.2221C17.0303 16.5912 19.748 16.8331 19.748 16.1352C19.4873 15.6545 18.9864 15.3335 18.4106 15.3335C17.8007 15.3335 17.2749 15.6936 17.0341 16.2128L17.0303 16.2221ZM8.68435 1.89128L1.41848 9.32606C-1.03602 12.3661 3.08978 12.0126 4.85784 12.8876C5.49262 13.5363 2.42633 14.0152 3.06105 14.664C3.69499 15.3126 6.89736 15.9137 7.53294 16.5616C8.1669 17.2102 6.23398 17.8983 6.86869 18.5462C7.50263 19.1956 8.97054 18.5806 9.24528 20.0781C9.44045 21.1475 11.8892 20.5373 13.0865 19.6615C13.7212 19.0128 11.8728 19.0735 12.5075 18.4248C14.0846 16.8117 15.5541 17.8392 16.0937 16.222C16.3603 15.4233 13.7713 14.9911 14.4069 14.3424C16.2324 13.2763 22.5412 12.5825 19.5471 9.58927L12.0172 1.89128C11.5846 1.4785 10.9976 1.22449 10.3511 1.22449C9.70466 1.22449 9.1176 1.4785 8.68423 1.89214L8.68515 1.89126L8.68435 1.89128ZM11.5768 2.41361L14.4511 5.3331C14.5867 5.48322 14.6698 5.68311 14.6698 5.9024C14.6698 6.05047 14.6319 6.18972 14.5654 6.31096L14.5676 6.30655L13.1407 5.165L12.8602 6.85521L11.667 6.22618L9.75783 7.43169L9.12558 4.88948L8.09965 6.66412H6.53085C5.89121 6.66412 5.81656 5.85226 6.39718 5.27164C7.41162 4.17683 8.57613 3.0607 9.20921 2.41367C9.51473 2.11635 9.93246 1.93297 10.393 1.93297C10.8536 1.93297 11.2713 2.11635 11.5772 2.41404L11.5768 2.41367V2.41361ZM6.94572 13.2912C7.14007 13.4117 10.0768 14.0088 10.7943 14.1277C11.0428 14.1802 10.8665 14.436 10.5237 14.609C9.75041 14.8149 5.99941 13.2912 6.94572 13.2912Z" fill="black"/>
</svg>
