<svg width="21" height="19" viewBox="0 0 21 19" fill="none" xmlns="http://www.w3.org/2000/svg">
<g clip-path="url(#clip0_638_3119)">
<path d="M17.2662 6.20428C17.0484 6.1293 16.8226 6.05835 16.5902 5.99125C16.6284 5.83534 16.6635 5.68145 16.6946 5.53018C17.2064 3.04618 16.8718 1.04506 15.7293 0.386204C14.6337 -0.24555 12.8421 0.413155 11.0326 1.98789C10.8586 2.13931 10.6841 2.29963 10.5097 2.46766C10.3935 2.35649 10.2775 2.24906 10.1618 2.1463C8.26537 0.462497 6.36453 -0.247083 5.22314 0.413679C4.12866 1.04726 3.80454 2.92851 4.26518 5.28261C4.30966 5.50999 4.36165 5.74219 4.42045 5.97828C4.15143 6.05465 3.89171 6.13606 3.64321 6.22267C1.41991 6.99782 0 8.21266 0 9.47276C0 10.7742 1.52427 12.0796 3.84002 12.8711C4.02277 12.9336 4.21239 12.9926 4.40782 13.0487C4.34438 13.304 4.28921 13.5543 4.2429 13.7983C3.80369 16.1116 4.14668 17.9484 5.23824 18.5779C6.36573 19.2281 8.25796 18.5598 10.1005 16.9492C10.2462 16.8219 10.3923 16.6869 10.5387 16.5453C10.7285 16.7281 10.918 16.901 11.1064 17.0633C12.8912 18.5991 14.6539 19.2193 15.7444 18.5879C16.8708 17.9359 17.2369 15.9627 16.7616 13.562C16.7253 13.3787 16.6831 13.1914 16.6357 13.0007C16.7685 12.9614 16.899 12.9209 17.0262 12.8787C19.4336 12.0811 21 10.7916 21 9.47276C21 8.2081 19.5343 6.98507 17.2662 6.20428ZM16.7441 12.0272C16.6292 12.0652 16.5114 12.1019 16.3913 12.1376C16.1256 11.2962 15.7669 10.4015 15.3279 9.47714C15.7468 8.57479 16.0916 7.69155 16.35 6.85562C16.5648 6.91779 16.7733 6.98335 16.9742 7.05254C18.9175 7.72152 20.1029 8.71063 20.1029 9.47276C20.1029 10.2846 18.8227 11.3384 16.7441 12.0272ZM15.8816 13.7363C16.0917 14.7978 16.1217 15.7576 15.9825 16.5078C15.8574 17.182 15.6059 17.6315 15.2949 17.8115C14.6331 18.1946 13.2178 17.6967 11.6915 16.3832C11.5165 16.2327 11.3403 16.0719 11.1635 15.9017C11.7552 15.2546 12.3466 14.5022 12.9238 13.6667C13.939 13.5766 14.8981 13.4293 15.7679 13.2283C15.8107 13.4011 15.8488 13.5706 15.8816 13.7363ZM7.15937 17.7453C6.51278 17.9737 5.9978 17.9802 5.6865 17.8007C5.0241 17.4187 4.74872 15.9439 5.12435 13.9656C5.16737 13.7391 5.21858 13.5063 5.2776 13.2684C6.13786 13.4587 7.08996 13.5956 8.10759 13.6781C8.68865 14.4957 9.29712 15.2472 9.9103 15.9052C9.77633 16.0345 9.64288 16.1577 9.51018 16.2737C8.69542 16.9859 7.87893 17.4912 7.15937 17.7453ZM4.13016 12.0222C3.10618 11.6722 2.26054 11.2173 1.68089 10.721C1.16004 10.2749 0.897076 9.83209 0.897076 9.47276C0.897076 8.70809 2.03712 7.73274 3.93851 7.06981C4.16922 6.98937 4.41073 6.91356 4.66136 6.84235C4.92414 7.69715 5.26886 8.59086 5.68486 9.49459C5.26348 10.4117 4.91386 11.3197 4.6485 12.1845C4.46983 12.1332 4.29672 12.0791 4.13016 12.0222ZM5.14558 5.11033C4.75092 3.09339 5.01303 1.57189 5.6726 1.19009C6.37515 0.783364 7.92869 1.36327 9.56607 2.81716C9.67073 2.91008 9.7758 3.00734 9.88118 3.10797C9.27103 3.76312 8.66813 4.509 8.09222 5.32178C7.10458 5.41333 6.15917 5.56038 5.28994 5.7573C5.23529 5.53747 5.18688 5.32149 5.14558 5.11033ZM14.204 7.34709C13.9962 6.98817 13.7829 6.63774 13.5654 6.29687C14.2355 6.38157 14.8774 6.49401 15.4803 6.63161C15.2993 7.21166 15.0737 7.81815 14.8082 8.43989C14.6177 8.07824 14.4162 7.7136 14.204 7.34709ZM10.51 3.74911C10.9238 4.1974 11.3382 4.69792 11.7458 5.24097C11.3351 5.22157 10.9192 5.21148 10.5 5.21148C10.0847 5.21148 9.67196 5.22135 9.26378 5.24041C9.67178 4.7024 10.0898 4.20256 10.51 3.74911ZM6.79234 7.3533C6.58477 7.71323 6.38703 8.07588 6.19954 8.43922C5.93829 7.81965 5.7148 7.21039 5.53223 6.62211C6.13139 6.48803 6.77033 6.3784 7.4361 6.2953C7.21556 6.63931 7.00047 6.9924 6.79234 7.3533ZM7.45527 12.7142C6.76741 12.6375 6.11887 12.5335 5.51986 12.4031C5.70534 11.8043 5.93377 11.1821 6.20055 10.5491C6.38853 10.9122 6.58705 11.275 6.79589 11.6357C7.00862 12.0032 7.22905 12.3632 7.45527 12.7142ZM10.5348 15.2597C10.1096 14.8009 9.68553 14.2934 9.27133 13.7476C9.67342 13.7634 10.0834 13.7714 10.5 13.7714C10.928 13.7714 11.3512 13.7618 11.7677 13.7432C11.3587 14.2989 10.9458 14.8072 10.5348 15.2597ZM14.8167 10.5169C15.0974 11.1566 15.334 11.7757 15.5219 12.3642C14.913 12.5031 14.2556 12.615 13.563 12.6981C13.781 12.3527 13.9962 11.9962 14.2076 11.6296C14.4215 11.2586 14.6247 10.8871 14.8167 10.5169ZM13.4305 11.1814C13.1023 11.7506 12.7652 12.2939 12.4231 12.8068C11.8 12.8514 11.1562 12.8743 10.5 12.8743C9.84649 12.8743 9.21081 12.854 8.59868 12.8143C8.24275 12.2947 7.89841 11.7497 7.57223 11.1863C7.24692 10.6244 6.94758 10.0578 6.67628 9.49429C6.94751 8.92952 7.24613 8.36225 7.56958 7.80137L7.5695 7.80148C7.89381 7.2391 8.23513 6.6968 8.58777 6.18043C9.21231 6.13322 9.85273 6.10859 10.5 6.10859C11.1501 6.10859 11.7914 6.13341 12.4157 6.18103C12.763 6.69362 13.102 7.23417 13.4276 7.79662C13.7569 8.36539 14.0593 8.92889 14.3329 9.48155C14.0602 10.0437 13.7584 10.6129 13.4305 11.1814ZM15.2812 1.1634C15.9844 1.56894 16.2579 3.20445 15.816 5.34911C15.7878 5.48596 15.7561 5.62534 15.7216 5.7666C14.8504 5.56557 13.9043 5.41598 12.9138 5.32305C12.3368 4.50134 11.7388 3.7543 11.1386 3.10756C11.3 2.95232 11.4611 2.8043 11.6216 2.66461C13.1719 1.31539 14.621 0.782691 15.2812 1.1634ZM10.5 7.59754C11.5356 7.59754 12.3752 8.43708 12.3752 9.47276C12.3752 10.5084 11.5356 11.348 10.5 11.348C9.46436 11.348 8.62477 10.5084 8.62477 9.47276C8.62477 8.43708 9.46436 7.59754 10.5 7.59754Z" fill="#00D8FF"/>
</g>
<defs>
<clipPath id="clip0_638_3119">
<rect width="21" height="18.7031" fill="white" transform="translate(0 0.148438)"/>
</clipPath>
</defs>
</svg>
