<svg width="111" height="41" viewBox="0 0 111 41" fill="none" xmlns="http://www.w3.org/2000/svg">
<path d="M22.6038 11.6821L22.2906 11.2924L22.6038 11.6821ZM107.354 34.3535C107.158 34.5487 106.842 34.5487 106.646 34.3535L103.464 31.1715C103.269 30.9762 103.269 30.6596 103.464 30.4644C103.66 30.2691 103.976 30.2691 104.172 30.4644L107 33.2928L109.828 30.4644C110.024 30.2691 110.34 30.2691 110.536 30.4644C110.731 30.6596 110.731 30.9762 110.536 31.1715L107.354 34.3535ZM22.2906 11.2924C28.4598 6.33528 34.6772 5.5108 40.1764 7.14718C45.6486 8.77552 50.3561 12.8228 53.5962 17.519C56.8317 22.2085 58.6566 27.6225 58.2672 32.0424C58.0717 34.2612 57.3148 36.2531 55.8699 37.7581C54.4224 39.2658 52.3284 40.239 49.5463 40.4978L49.4537 39.5021C52.0466 39.2609 53.8992 38.3668 55.1485 37.0655C56.4005 35.7615 57.0906 34.0027 57.2711 31.9546C57.6335 27.8407 55.9257 22.6562 52.7731 18.0869C49.6251 13.5242 45.089 9.65236 39.8912 8.10565C34.7204 6.56697 28.8414 7.31151 22.9169 12.0719L22.2906 11.2924ZM49.5463 40.4978C46.8009 40.7532 44.7648 40.3347 43.417 39.2941C42.0493 38.2381 41.4938 36.624 41.5349 34.739C41.5759 32.8638 42.2043 30.6689 43.26 28.3331C44.3184 25.9912 45.8199 23.4778 47.6387 20.9573C51.2751 15.9179 56.2041 10.817 61.4653 6.97126C66.7135 3.13507 72.358 0.49992 77.416 0.49992V1.49992C72.6721 1.49992 67.2388 3.98977 62.0554 7.77858C56.8852 11.5579 52.0291 16.5819 48.4496 21.5425C46.6603 24.0221 45.196 26.4774 44.1712 28.7449C43.1437 31.0184 42.5715 33.0736 42.5347 34.7608C42.4981 36.4383 42.9876 37.6992 44.0282 38.5026C45.0887 39.3214 46.8241 39.7467 49.4537 39.5021L49.5463 40.4978ZM77.416 0.49992C87.3424 0.49992 94.8865 3.95195 99.9406 9.90652C104.985 15.8493 107.5 24.227 107.5 33.9999H106.5C106.5 24.3866 104.025 16.2643 99.1782 10.5536C94.3411 4.85476 87.0932 1.49992 77.416 1.49992V0.49992ZM22.9169 12.0719C16.3978 17.3102 10.7668 17.3901 6.74028 14.9276C2.77105 12.5002 0.5 7.6773 0.5 3.37375H1.5C1.5 7.3786 3.62984 11.8532 7.26201 14.0745C10.8369 16.2608 16.0078 16.3407 22.2906 11.2924L22.9169 12.0719Z" fill="black" fill-opacity="0.7"/>
</svg>
