<svg width="35" height="82" viewBox="0 0 35 82" fill="none" xmlns="http://www.w3.org/2000/svg">
<path d="M3.58396 77.7773C3.43078 77.5476 3.49287 77.2371 3.72263 77.0839L7.46685 74.5878C7.69662 74.4346 8.00705 74.4967 8.16023 74.7265C8.31341 74.9562 8.25132 75.2667 8.02156 75.4198L4.69336 77.6386L6.91217 80.9668C7.06534 81.1966 7.00326 81.507 6.77349 81.6602C6.54373 81.8134 6.2333 81.7513 6.08012 81.5215L3.58396 77.7773ZM18.5 -9.91821e-05C21.4069 -9.91821e-05 24.4277 1.38358 27.0156 3.73115C29.608 6.08274 31.7957 9.42601 33.0398 13.4135C35.5343 21.4089 34.2293 31.9651 24.8712 42.335L24.1288 41.665C33.2706 31.5349 34.4656 21.3411 32.0852 13.7114C30.8918 9.88637 28.7983 6.69836 26.3437 4.47181C23.8848 2.24124 21.0931 0.999901 18.5 0.999901V-9.91821e-05ZM24.8712 42.335C20.1843 47.5286 15.5609 49.6232 11.5799 49.6624C7.59671 49.7017 4.34476 47.6805 2.4342 44.8279C0.526965 41.9802 -0.0586574 38.2803 1.31124 34.9463C2.68656 31.599 5.99258 28.7127 11.6854 27.4099L11.9085 28.3847C6.45287 29.6332 3.46002 32.3478 2.2362 35.3263C1.00696 38.3181 1.52192 41.6687 3.26507 44.2714C5.0049 46.8691 7.95315 48.6981 11.57 48.6625C15.1891 48.6268 19.5658 46.7214 24.1288 41.665L24.8712 42.335ZM11.6854 27.4099C17.5317 26.072 22.9776 29.298 27.059 34.5232C31.1481 39.7584 33.9624 47.1027 34.5706 54.3055C35.1783 61.5033 33.5872 68.6513 28.7427 73.3969C23.8835 78.157 15.8721 80.3843 3.90193 77.9903L4.09804 77.0097C15.8779 79.3656 23.5032 77.1297 28.0429 72.6826C32.5974 68.221 34.1675 61.4179 33.5741 54.3897C32.9811 47.3665 30.232 40.2101 26.2709 35.1387C22.3019 30.0574 17.2107 27.1713 11.9085 28.3847L11.6854 27.4099Z" fill="black" fill-opacity="0.7"/>
</svg>
