<svg width="375" height="258" viewBox="0 0 375 258" fill="none" xmlns="http://www.w3.org/2000/svg">
<mask id="path-1-outside-1_638_3253" maskUnits="userSpaceOnUse" x="-159" y="-1" width="535" height="260" fill="black">
<rect fill="white" x="-159" y="-1" width="535" height="260"/>
<path d="M-118.847 116H-157.518V6.90909H-118.527C-107.554 6.90909 -98.108 9.09304 -90.1889 13.4609C-82.2699 17.7933 -76.1797 24.0256 -71.9183 32.1577C-67.6214 40.2898 -65.473 50.0199 -65.473 61.348C-65.473 72.7116 -67.6214 82.4773 -71.9183 90.6449C-76.1797 98.8125 -82.3054 105.08 -90.2955 109.448C-98.25 113.816 -107.767 116 -118.847 116ZM-134.454 96.2379H-119.805C-112.987 96.2379 -107.252 95.0305 -102.6 92.6158C-97.9126 90.1655 -94.397 86.3835 -92.0533 81.2699C-89.674 76.1207 -88.4844 69.4801 -88.4844 61.348C-88.4844 53.2869 -89.674 46.6996 -92.0533 41.5859C-94.397 36.4723 -97.8949 32.7081 -102.547 30.2933C-107.199 27.8786 -112.934 26.6712 -119.752 26.6712H-134.454V96.2379ZM-48.8137 116V34.1818H-26.8145V48.4574H-25.9622C-24.4707 43.3793 -21.9672 39.544 -18.4515 36.9517C-14.9359 34.3239 -10.8876 33.0099 -6.30664 33.0099C-5.17028 33.0099 -3.94513 33.081 -2.63121 33.223C-1.31729 33.3651 -0.163172 33.5604 0.831147 33.8089V53.9439C-0.234194 53.6243 -1.70792 53.3402 -3.59002 53.0916C-5.47212 52.843 -7.19442 52.7188 -8.75692 52.7188C-12.095 52.7188 -15.0779 53.4467 -17.7058 54.9027C-20.2981 56.3232 -22.3578 58.3118 -23.8848 60.8686C-25.3762 63.4254 -26.122 66.3729 -26.122 69.7109V116H-48.8137ZM12.5632 116V34.1818H35.255V116H12.5632ZM23.9624 23.6349C20.5888 23.6349 17.6946 22.5163 15.2798 20.2791C12.9006 18.0064 11.7109 15.2898 11.7109 12.1293C11.7109 9.00426 12.9006 6.32315 15.2798 4.08594C17.6946 1.81321 20.5888 0.676841 23.9624 0.676841C27.3359 0.676841 30.2124 1.81321 32.5916 4.08594C35.0064 6.32315 36.2138 9.00426 36.2138 12.1293C36.2138 15.2898 35.0064 18.0064 32.5916 20.2791C30.2124 22.5163 27.3359 23.6349 23.9624 23.6349ZM129.711 34.1818L101.106 116H75.5382L46.9338 34.1818H70.9039L87.8961 92.7223H88.7484L105.687 34.1818H129.711ZM175.973 117.598C167.557 117.598 160.313 115.893 154.24 112.484C148.203 109.04 143.551 104.175 140.284 97.8892C137.017 91.5682 135.384 84.093 135.384 75.4638C135.384 67.0476 137.017 59.6612 140.284 53.3047C143.551 46.9482 148.15 41.9943 154.08 38.4432C160.046 34.892 167.042 33.1165 175.068 33.1165C180.465 33.1165 185.49 33.9865 190.142 35.7266C194.83 37.4311 198.914 40.0057 202.394 43.4503C205.909 46.8949 208.644 51.2273 210.597 56.4474C212.55 61.6321 213.526 67.7045 213.526 74.6648V80.897H144.439V66.8345H192.166C192.166 63.5675 191.456 60.6733 190.036 58.152C188.615 55.6307 186.644 53.6598 184.123 52.2393C181.637 50.7834 178.743 50.0554 175.441 50.0554C171.996 50.0554 168.942 50.8544 166.279 52.4524C163.651 54.0149 161.591 56.1278 160.1 58.7912C158.608 61.419 157.845 64.3487 157.809 67.5803V80.9503C157.809 84.9986 158.555 88.4964 160.046 91.4439C161.573 94.3913 163.722 96.6641 166.492 98.2621C169.262 99.8601 172.546 100.659 176.346 100.659C178.867 100.659 181.176 100.304 183.271 99.5938C185.366 98.8835 187.159 97.8182 188.651 96.3977C190.142 94.9773 191.279 93.2372 192.06 91.1776L213.047 92.5625C211.982 97.6051 209.798 102.009 206.495 105.773C203.228 109.501 199.002 112.413 193.818 114.509C188.669 116.568 182.72 117.598 175.973 117.598ZM-157.518 256V146.909H-114.479C-106.24 146.909 -99.2088 148.383 -93.3849 151.33C-87.5256 154.242 -83.0689 158.379 -80.0149 163.741C-76.9254 169.068 -75.3807 175.336 -75.3807 182.545C-75.3807 189.789 -76.9432 196.021 -80.0682 201.241C-83.1932 206.426 -87.7209 210.403 -93.6513 213.173C-99.5462 215.943 -106.684 217.328 -115.065 217.328H-143.882V198.791H-118.793C-114.39 198.791 -110.732 198.187 -107.82 196.98C-104.908 195.773 -102.742 193.962 -101.322 191.547C-99.8658 189.132 -99.1378 186.131 -99.1378 182.545C-99.1378 178.923 -99.8658 175.869 -101.322 173.383C-102.742 170.897 -104.926 169.015 -107.874 167.737C-110.786 166.423 -114.461 165.766 -118.9 165.766H-134.454V256H-157.518ZM-98.6051 206.355L-71.4922 256H-96.9538L-123.481 206.355H-98.6051ZM-23.5385 257.598C-31.9547 257.598 -39.199 255.893 -45.2715 252.484C-51.3084 249.04 -55.9604 244.175 -59.2275 237.889C-62.4945 231.568 -64.128 224.093 -64.128 215.464C-64.128 207.048 -62.4945 199.661 -59.2275 193.305C-55.9604 186.948 -51.3617 181.994 -45.4313 178.443C-39.4654 174.892 -32.4696 173.116 -24.4441 173.116C-19.0463 173.116 -14.0215 173.987 -9.3695 175.727C-4.682 177.431 -0.598188 180.006 2.88193 183.45C6.39755 186.895 9.13193 191.227 11.0851 196.447C13.0382 201.632 14.0147 207.705 14.0147 214.665V220.897H-55.0726V206.835H-7.34534C-7.34534 203.567 -8.05557 200.673 -9.47603 198.152C-10.8965 195.631 -12.8674 193.66 -15.3887 192.239C-17.8745 190.783 -20.7686 190.055 -24.0712 190.055C-27.5158 190.055 -30.5698 190.854 -33.2331 192.452C-35.861 194.015 -37.9206 196.128 -39.4121 198.791C-40.9036 201.419 -41.6671 204.349 -41.7026 207.58V220.95C-41.7026 224.999 -40.9569 228.496 -39.4654 231.444C-37.9384 234.391 -35.7899 236.664 -33.0201 238.262C-30.2502 239.86 -26.9654 240.659 -23.1657 240.659C-20.6444 240.659 -18.3361 240.304 -16.2409 239.594C-14.1458 238.884 -12.3524 237.818 -10.861 236.398C-9.3695 234.977 -8.23313 233.237 -7.45188 231.178L13.5353 232.562C12.47 237.605 10.286 242.009 6.98349 245.773C3.71644 249.501 -0.509409 252.413 -5.69407 254.509C-10.8432 256.568 -16.7914 257.598 -23.5385 257.598ZM96.8983 197.513L76.1241 198.791C75.769 197.016 75.0055 195.418 73.8336 193.997C72.6618 192.541 71.117 191.387 69.1994 190.535C67.3173 189.647 65.0623 189.203 62.4345 189.203C58.9189 189.203 55.9537 189.949 53.5389 191.44C51.1241 192.896 49.9167 194.849 49.9167 197.3C49.9167 199.253 50.698 200.904 52.2605 202.254C53.823 203.603 56.5041 204.686 60.3038 205.503L75.112 208.486C83.0666 210.119 88.997 212.747 92.9032 216.369C96.8095 219.991 98.7626 224.75 98.7626 230.645C98.7626 236.007 97.1824 240.712 94.0218 244.761C90.8968 248.809 86.6 251.969 81.1312 254.242C75.698 256.479 69.4302 257.598 62.3279 257.598C51.497 257.598 42.8677 255.343 36.4402 250.833C30.0481 246.288 26.3017 240.109 25.2008 232.296L47.5197 231.124C48.1944 234.427 49.8279 236.948 52.4203 238.688C55.0126 240.393 58.3329 241.245 62.3812 241.245C66.3585 241.245 69.5545 240.482 71.9693 238.955C74.4196 237.392 75.6625 235.386 75.698 232.935C75.6625 230.876 74.7924 229.189 73.0879 227.875C71.3833 226.526 68.7555 225.496 65.2044 224.786L51.0353 221.962C43.0453 220.364 37.0971 217.594 33.1909 213.653C29.3201 209.711 27.3848 204.686 27.3848 198.578C27.3848 193.322 28.8052 188.795 31.6461 184.995C34.5225 181.195 38.5531 178.266 43.7377 176.206C48.9579 174.146 55.0659 173.116 62.0616 173.116C72.3954 173.116 80.5275 175.3 86.4579 179.668C92.4238 184.036 95.9039 189.984 96.8983 197.513ZM165.52 221.163V174.182H188.211V256H166.425V241.138H165.573C163.726 245.933 160.654 249.786 156.358 252.697C152.096 255.609 146.894 257.065 140.75 257.065C135.282 257.065 130.47 255.822 126.315 253.337C122.16 250.851 118.911 247.317 116.567 242.737C114.259 238.156 113.087 232.669 113.051 226.277V174.182H135.743V222.229C135.779 227.058 137.075 230.876 139.632 233.681C142.189 236.487 145.615 237.889 149.912 237.889C152.647 237.889 155.203 237.268 157.583 236.025C159.962 234.746 161.88 232.864 163.336 230.379C164.827 227.893 165.555 224.821 165.52 221.163ZM229.054 146.909V256H206.362V146.909H229.054ZM290.75 174.182V191.227H241.478V174.182H290.75ZM252.664 154.58H275.356V230.858C275.356 232.953 275.676 234.587 276.315 235.759C276.954 236.895 277.842 237.694 278.978 238.156C280.15 238.617 281.5 238.848 283.027 238.848C284.092 238.848 285.157 238.759 286.223 238.582C287.288 238.369 288.105 238.209 288.673 238.102L292.242 254.988C291.105 255.343 289.507 255.751 287.448 256.213C285.388 256.71 282.885 257.012 279.937 257.119C274.468 257.332 269.674 256.604 265.555 254.935C261.471 253.266 258.293 250.673 256.02 247.158C253.748 243.642 252.629 239.203 252.664 233.841V154.58ZM372.582 197.513L351.808 198.791C351.453 197.016 350.689 195.418 349.517 193.997C348.345 192.541 346.801 191.387 344.883 190.535C343.001 189.647 340.746 189.203 338.118 189.203C334.602 189.203 331.637 189.949 329.222 191.44C326.808 192.896 325.6 194.849 325.6 197.3C325.6 199.253 326.382 200.904 327.944 202.254C329.507 203.603 332.188 204.686 335.987 205.503L350.796 208.486C358.75 210.119 364.681 212.747 368.587 216.369C372.493 219.991 374.446 224.75 374.446 230.645C374.446 236.007 372.866 240.712 369.705 244.761C366.58 248.809 362.284 251.969 356.815 254.242C351.382 256.479 345.114 257.598 338.012 257.598C327.181 257.598 318.551 255.343 312.124 250.833C305.732 246.288 301.985 240.109 300.884 232.296L323.203 231.124C323.878 234.427 325.512 236.948 328.104 238.688C330.696 240.393 334.017 241.245 338.065 241.245C342.042 241.245 345.238 240.482 347.653 238.955C350.103 237.392 351.346 235.386 351.382 232.935C351.346 230.876 350.476 229.189 348.771 227.875C347.067 226.526 344.439 225.496 340.888 224.786L326.719 221.962C318.729 220.364 312.781 217.594 308.874 213.653C305.004 209.711 303.068 204.686 303.068 198.578C303.068 193.322 304.489 188.795 307.33 184.995C310.206 181.195 314.237 178.266 319.421 176.206C324.642 174.146 330.749 173.116 337.745 173.116C348.079 173.116 356.211 175.3 362.142 179.668C368.107 184.036 371.588 189.984 372.582 197.513Z"/>
</mask>
<path d="M-157.518 116H-158.518V117H-157.518V116ZM-157.518 6.90909V5.90909H-158.518V6.90909H-157.518ZM-90.1889 13.4609L-90.6719 14.3366L-90.6689 14.3382L-90.1889 13.4609ZM-71.9183 32.1577L-72.8041 32.6218L-72.8025 32.6248L-71.9183 32.1577ZM-71.9183 90.6449L-72.8033 90.1793L-72.8049 90.1823L-71.9183 90.6449ZM-90.2955 109.448L-90.7751 108.571L-90.7768 108.572L-90.2955 109.448ZM-134.454 96.2379H-135.454V97.2379H-134.454V96.2379ZM-102.6 92.6158L-102.139 93.5033L-102.137 93.502L-102.6 92.6158ZM-92.0533 81.2699L-92.961 80.8504L-92.9623 80.8532L-92.0533 81.2699ZM-92.0533 41.5859L-92.9623 42.0026L-92.9599 42.0078L-92.0533 41.5859ZM-102.547 30.2933L-102.086 29.4058H-102.086L-102.547 30.2933ZM-134.454 26.6712V25.6712H-135.454V26.6712H-134.454ZM-118.847 115H-157.518V117H-118.847V115ZM-156.518 116V6.90909H-158.518V116H-156.518ZM-157.518 7.90909H-118.527V5.90909H-157.518V7.90909ZM-118.527 7.90909C-107.687 7.90909 -98.4146 10.066 -90.6719 14.3366L-89.7059 12.5853C-97.8014 8.12012 -107.421 5.90909 -118.527 5.90909V7.90909ZM-90.6689 14.3382C-82.926 18.5742 -76.9755 24.6613 -72.8041 32.6218L-71.0326 31.6935C-75.3838 23.3899 -81.6138 17.0124 -89.709 12.5836L-90.6689 14.3382ZM-72.8025 32.6248C-68.5973 40.5833 -66.473 50.1455 -66.473 61.348H-64.473C-64.473 49.8942 -66.6456 39.9962 -71.0342 31.6905L-72.8025 32.6248ZM-66.473 61.348C-66.473 72.5864 -68.5975 82.1848 -72.8033 90.1793L-71.0333 91.1105C-66.6454 82.7698 -64.473 72.8369 -64.473 61.348H-66.473ZM-72.8049 90.1823C-76.9758 98.1766 -82.9609 104.299 -90.7751 108.571L-89.8158 110.326C-81.6499 105.862 -75.3835 99.4484 -71.0317 91.1075L-72.8049 90.1823ZM-90.7768 108.572C-98.5546 112.842 -107.898 115 -118.847 115V117C-107.636 117 -97.9454 114.79 -89.8141 110.325L-90.7768 108.572ZM-134.454 97.2379H-119.805V95.2379H-134.454V97.2379ZM-119.805 97.2379C-112.873 97.2379 -106.97 96.0108 -102.139 93.5033L-103.061 91.7282C-107.534 94.0503 -113.101 95.2379 -119.805 95.2379V97.2379ZM-102.137 93.502C-97.2399 90.9422 -93.5741 86.9881 -91.1442 81.6865L-92.9623 80.8532C-95.2199 85.7789 -98.5854 89.3888 -103.063 91.7295L-102.137 93.502ZM-91.1455 81.6893C-88.6851 76.3645 -87.4844 69.5668 -87.4844 61.348H-89.4844C-89.4844 69.3935 -90.663 75.877 -92.961 80.8504L-91.1455 81.6893ZM-87.4844 61.348C-87.4844 53.1992 -88.6853 46.454 -91.1466 41.1641L-92.9599 42.0078C-90.6627 46.9452 -89.4844 53.3746 -89.4844 61.348H-87.4844ZM-91.1442 41.1693C-93.5735 35.869 -97.2215 31.9309 -102.086 29.4058L-103.008 31.1809C-98.5683 33.4853 -95.2205 37.0756 -92.9623 42.0026L-91.1442 41.1693ZM-102.086 29.4058C-106.917 26.8983 -112.82 25.6712 -119.752 25.6712V27.6712C-113.048 27.6712 -107.481 28.8588 -103.008 31.1809L-102.086 29.4058ZM-119.752 25.6712H-134.454V27.6712H-119.752V25.6712ZM-135.454 26.6712V96.2379H-133.454V26.6712H-135.454ZM-48.8137 116H-49.8137V117H-48.8137V116ZM-48.8137 34.1818V33.1818H-49.8137V34.1818H-48.8137ZM-26.8145 34.1818H-25.8145V33.1818H-26.8145V34.1818ZM-26.8145 48.4574H-27.8145V49.4574H-26.8145V48.4574ZM-25.9622 48.4574V49.4574H-25.2136L-25.0027 48.7392L-25.9622 48.4574ZM-18.4515 36.9517L-17.858 37.7566L-17.8528 37.7527L-18.4515 36.9517ZM-2.63121 33.223L-2.52373 32.2288L-2.63121 33.223ZM0.831146 33.8089H1.83115V33.0282L1.07368 32.8388L0.831146 33.8089ZM0.831146 53.9439L0.543793 54.9017L1.83115 55.2879V53.9439H0.831146ZM-17.7058 54.9027L-17.2253 55.7797L-17.2211 55.7774L-17.7058 54.9027ZM-23.8848 60.8686L-24.7433 60.3558L-24.7486 60.3647L-23.8848 60.8686ZM-26.122 116V117H-25.122V116H-26.122ZM-47.8137 116V34.1818H-49.8137V116H-47.8137ZM-48.8137 35.1818H-26.8145V33.1818H-48.8137V35.1818ZM-27.8145 34.1818V48.4574H-25.8145V34.1818H-27.8145ZM-26.8145 49.4574H-25.9622V47.4574H-26.8145V49.4574ZM-25.0027 48.7392C-23.5594 43.8251 -21.1631 40.1936 -17.858 37.7566L-19.045 36.1469C-22.7712 38.8945 -25.382 42.9334 -26.9216 48.1756L-25.0027 48.7392ZM-17.8528 37.7527C-14.518 35.26 -10.6819 34.0099 -6.30664 34.0099V32.0099C-11.0933 32.0099 -15.3538 33.3878 -19.0502 36.1507L-17.8528 37.7527ZM-6.30664 34.0099C-5.2114 34.0099 -4.02251 34.0784 -2.73869 34.2172L-2.52373 32.2288C-3.86775 32.0835 -5.12915 32.0099 -6.30664 32.0099V34.0099ZM-2.73869 34.2172C-1.45801 34.3557 -0.350739 34.5443 0.588608 34.7791L1.07368 32.8388C0.0243988 32.5765 -1.17657 32.3744 -2.52373 32.2288L-2.73869 34.2172ZM-0.168854 33.8089V53.9439H1.83115V33.8089H-0.168854ZM1.1185 52.9861C-0.0213318 52.6441 -1.55544 52.3517 -3.45908 52.1002L-3.72096 54.083C-1.8604 54.3287 -0.447052 54.6045 0.543793 54.9017L1.1185 52.9861ZM-3.45908 52.1002C-5.37573 51.8471 -7.14252 51.7188 -8.75693 51.7188V53.7188C-7.24632 53.7188 -5.56851 53.839 -3.72096 54.083L-3.45908 52.1002ZM-8.75693 51.7188C-12.2453 51.7188 -15.3983 52.481 -18.1904 54.028L-17.2211 55.7774C-14.7576 54.4125 -11.9447 53.7188 -8.75693 53.7188V51.7188ZM-18.1863 54.0257C-20.9361 55.5324 -23.1257 57.6473 -24.7433 60.3559L-23.0262 61.3813C-21.5898 58.9762 -19.6602 57.1139 -17.2253 55.7797L-18.1863 54.0257ZM-24.7486 60.3647C-26.3402 63.0933 -27.122 66.2189 -27.122 69.7109H-25.122C-25.122 66.5268 -24.4123 63.7576 -23.021 61.3725L-24.7486 60.3647ZM-27.122 69.7109V116H-25.122V69.7109H-27.122ZM-26.122 115H-48.8137V117H-26.122V115ZM12.5632 116H11.5632V117H12.5632V116ZM12.5632 34.1818V33.1818H11.5632V34.1818H12.5632ZM35.255 34.1818H36.255V33.1818H35.255V34.1818ZM35.255 116V117H36.255V116H35.255ZM15.2798 20.2791L14.5891 21.0022L14.5946 21.0075L14.6002 21.0127L15.2798 20.2791ZM15.2798 4.08594L15.9649 4.81446L15.9652 4.81414L15.2798 4.08594ZM32.5916 4.08594L31.9009 4.80905L31.9064 4.81432L31.912 4.8195L32.5916 4.08594ZM32.5916 20.2791L33.2766 21.0076L33.277 21.0073L32.5916 20.2791ZM13.5632 116V34.1818H11.5632V116H13.5632ZM12.5632 35.1818H35.255V33.1818H12.5632V35.1818ZM34.255 34.1818V116H36.255V34.1818H34.255ZM35.255 115H12.5632V117H35.255V115ZM23.9624 22.6349C20.8339 22.6349 18.1843 21.6068 15.9595 19.5456L14.6002 21.0127C17.2049 23.4258 20.3437 24.6349 23.9624 24.6349V22.6349ZM15.9706 19.556C13.7797 17.4633 12.7109 15.0043 12.7109 12.1293H10.7109C10.7109 15.5753 12.0214 18.5495 14.5891 21.0022L15.9706 19.556ZM12.7109 12.1293C12.7109 9.29384 13.7764 6.87226 15.9649 4.81446L14.5948 3.35742C12.0247 5.77404 10.7109 8.71467 10.7109 12.1293H12.7109ZM15.9652 4.81414C18.1909 2.71933 20.8386 1.67684 23.9624 1.67684V-0.323159C20.339 -0.323159 17.1983 0.907084 14.5945 3.35774L15.9652 4.81414ZM23.9624 1.67684C27.0859 1.67684 29.7128 2.71897 31.9009 4.80905L33.2823 3.36283C30.7119 0.907438 27.586 -0.323159 23.9624 -0.323159V1.67684ZM31.912 4.8195C34.1348 6.87884 35.2138 9.29902 35.2138 12.1293H37.2138C37.2138 8.70949 35.878 5.76746 33.2712 3.35238L31.912 4.8195ZM35.2138 12.1293C35.2138 14.9991 34.1313 17.4567 31.9062 19.5509L33.277 21.0073C35.8814 18.5561 37.2138 15.5804 37.2138 12.1293H35.2138ZM31.9066 19.5506C29.7195 21.6072 27.0907 22.6349 23.9624 22.6349V24.6349C27.5812 24.6349 30.7053 23.4255 33.2766 21.0076L31.9066 19.5506ZM129.711 34.1818L130.655 34.5118L131.12 33.1818H129.711V34.1818ZM101.106 116V117H101.816L102.05 116.33L101.106 116ZM75.5382 116L74.5942 116.33L74.8284 117H75.5382V116ZM46.9338 34.1818V33.1818H45.5248L45.9898 34.5118L46.9338 34.1818ZM70.9039 34.1818L71.8643 33.9031L71.655 33.1818H70.9039V34.1818ZM87.8961 92.7223L86.9358 93.0011L87.1451 93.7223H87.8961V92.7223ZM88.7484 92.7223V93.7223H89.5001L89.709 93.0003L88.7484 92.7223ZM105.687 34.1818V33.1818H104.936L104.727 33.9039L105.687 34.1818ZM128.767 33.8518L100.162 115.67L102.05 116.33L130.655 34.5118L128.767 33.8518ZM101.106 115H75.5382V117H101.106V115ZM76.4821 115.67L47.8777 33.8518L45.9898 34.5118L74.5942 116.33L76.4821 115.67ZM46.9338 35.1818H70.9039V33.1818H46.9338V35.1818ZM69.9436 34.4606L86.9358 93.0011L88.8565 92.4435L71.8643 33.9031L69.9436 34.4606ZM87.8961 93.7223H88.7484V91.7223H87.8961V93.7223ZM89.709 93.0003L106.648 34.4598L104.727 33.9039L87.7878 92.4444L89.709 93.0003ZM105.687 35.1818H129.711V33.1818H105.687V35.1818ZM154.24 112.484L153.745 113.353L153.751 113.356L154.24 112.484ZM140.284 97.8892L139.396 98.3484L139.397 98.3504L140.284 97.8892ZM140.284 53.3047L139.395 52.8476L140.284 53.3047ZM154.08 38.4432L153.569 37.5839L153.567 37.5852L154.08 38.4432ZM190.142 35.7266L189.792 36.6632L189.8 36.6664L190.142 35.7266ZM202.394 43.4503L201.69 44.161L201.694 44.1646L202.394 43.4503ZM210.597 56.4474L209.66 56.7979L209.661 56.8L210.597 56.4474ZM213.526 80.897V81.897H214.526V80.897H213.526ZM144.439 80.897H143.439V81.897H144.439V80.897ZM144.439 66.8345V65.8345H143.439V66.8345H144.439ZM192.166 66.8345V67.8345H193.166V66.8345H192.166ZM190.036 58.152L189.164 58.6428L190.036 58.152ZM184.123 52.2393L183.618 53.1022L183.625 53.1065L183.632 53.1106L184.123 52.2393ZM166.279 52.4524L166.79 53.312L166.793 53.3099L166.279 52.4524ZM160.1 58.7912L160.969 59.2848L160.972 59.2798L160.1 58.7912ZM157.809 67.5803L156.809 67.5693V67.5803H157.809ZM160.046 91.4439L159.154 91.8954L159.158 91.9039L160.046 91.4439ZM183.271 99.5938L182.95 98.6467L183.271 99.5938ZM188.651 96.3977L187.961 95.6736V95.6736L188.651 96.3977ZM192.06 91.1776L192.126 90.1797L191.387 90.131L191.125 90.8229L192.06 91.1776ZM213.047 92.5625L214.025 92.7692L214.264 91.6406L213.113 91.5647L213.047 92.5625ZM206.495 105.773L205.743 105.113L205.743 105.114L206.495 105.773ZM193.818 114.509L194.189 115.437L194.192 115.436L193.818 114.509ZM175.973 116.598C167.693 116.598 160.624 114.922 154.73 111.612L153.751 113.356C160.001 116.865 167.421 118.598 175.973 118.598V116.598ZM154.736 111.616C148.869 108.268 144.352 103.546 141.172 97.428L139.397 98.3504C142.751 104.803 147.537 109.811 153.745 113.353L154.736 111.616ZM141.173 97.4301C137.993 91.2781 136.384 83.9669 136.384 75.4638H134.384C134.384 84.2192 136.041 91.8583 139.396 98.3484L141.173 97.4301ZM136.384 75.4638C136.384 67.1784 137.991 59.9538 141.174 53.7618L139.395 52.8476C136.043 59.3686 134.384 66.9167 134.384 75.4638H136.384ZM141.174 53.7618C144.358 47.5654 148.83 42.753 154.594 39.3011L153.567 37.5852C147.47 41.2357 142.744 46.3309 139.395 52.8476L141.174 53.7618ZM154.592 39.3025C160.38 35.857 167.194 34.1165 175.068 34.1165V32.1165C166.891 32.1165 159.712 33.9271 153.569 37.5839L154.592 39.3025ZM175.068 34.1165C180.356 34.1165 185.261 34.9685 189.792 36.6632L190.493 34.7899C185.719 33.0045 180.575 32.1165 175.068 32.1165V34.1165ZM189.8 36.6664C194.355 38.3225 198.315 40.8199 201.69 44.161L203.097 42.7396C199.512 39.1914 195.305 36.5397 190.484 34.7868L189.8 36.6664ZM201.694 44.1646C205.092 47.4939 207.752 51.6966 209.66 56.7979L211.533 56.097C209.536 50.7579 206.727 46.2959 203.094 42.736L201.694 44.1646ZM209.661 56.8C211.562 61.8472 212.526 67.7953 212.526 74.6648H214.526C214.526 67.6137 213.537 61.417 211.533 56.0949L209.661 56.8ZM212.526 74.6648V80.897H214.526V74.6648H212.526ZM213.526 79.897H144.439V81.897H213.526V79.897ZM145.439 80.897V66.8345H143.439V80.897H145.439ZM144.439 67.8345H192.166V65.8345H144.439V67.8345ZM193.166 66.8345C193.166 63.4181 192.422 60.3508 190.907 57.6611L189.164 58.6428C190.49 60.9958 191.166 63.7169 191.166 66.8345H193.166ZM190.907 57.6611C189.397 54.9807 187.294 52.8782 184.614 51.3681L183.632 53.1106C185.994 54.4414 187.834 56.2807 189.164 58.6428L190.907 57.6611ZM184.628 51.3765C181.968 49.8182 178.894 49.0554 175.441 49.0554V51.0554C178.592 51.0554 181.306 51.7485 183.618 53.1022L184.628 51.3765ZM175.441 49.0554C171.835 49.0554 168.599 49.8937 165.764 51.5949L166.793 53.3099C169.284 51.8151 172.157 51.0554 175.441 51.0554V49.0554ZM165.768 51.5929C162.989 53.245 160.805 55.4857 159.227 58.3026L160.972 59.2798C162.378 56.7699 164.313 54.7848 166.79 53.3119L165.768 51.5929ZM159.23 58.2976C157.649 61.0829 156.846 64.1806 156.809 67.5693L158.809 67.5912C158.843 64.5169 159.567 61.7552 160.969 59.2848L159.23 58.2976ZM156.809 67.5803V80.9503H158.809V67.5803H156.809ZM156.809 80.9503C156.809 85.1206 157.578 88.7799 159.154 91.8954L160.939 90.9924C159.532 88.213 158.809 84.8765 158.809 80.9503H156.809ZM159.158 91.9039C160.77 95.0142 163.05 97.431 165.992 99.1283L166.991 97.3959C164.394 95.8971 162.377 93.7684 160.934 90.9839L159.158 91.9039ZM165.992 99.1283C168.94 100.829 172.404 101.659 176.346 101.659V99.6591C172.689 99.6591 169.583 98.891 166.991 97.3959L165.992 99.1283ZM176.346 101.659C178.962 101.659 181.38 101.291 183.592 100.541L182.95 98.6467C180.971 99.3173 178.773 99.6591 176.346 99.6591V101.659ZM183.592 100.541C185.814 99.7875 187.736 98.6498 189.34 97.1219L187.961 95.6736C186.582 96.9865 184.918 97.9796 182.95 98.6467L183.592 100.541ZM189.34 97.1219C190.948 95.5911 192.164 93.7219 192.995 91.5322L191.125 90.8229C190.393 92.7525 189.337 94.3635 187.961 95.6736L189.34 97.1219ZM191.994 92.1754L212.981 93.5603L213.113 91.5647L192.126 90.1797L191.994 92.1754ZM212.069 92.3558C211.038 97.2356 208.93 101.482 205.743 105.113L207.247 106.432C210.666 102.535 212.926 97.9746 214.025 92.7692L212.069 92.3558ZM205.743 105.114C202.592 108.71 198.501 111.537 193.443 113.581L194.192 115.436C199.503 113.289 203.865 110.292 207.247 106.432L205.743 105.114ZM193.446 113.58C188.438 115.583 182.62 116.598 175.973 116.598V118.598C182.821 118.598 188.899 117.553 194.189 115.437L193.446 113.58ZM-157.518 256H-158.518V257H-157.518V256ZM-157.518 146.909V145.909H-158.518V146.909H-157.518ZM-93.3849 151.33L-93.8365 152.223L-93.83 152.226L-93.3849 151.33ZM-80.0149 163.741L-80.8839 164.236L-80.8799 164.243L-80.0149 163.741ZM-80.0682 201.241L-79.2117 201.758L-79.2102 201.755L-80.0682 201.241ZM-93.6513 213.173L-94.0745 212.267L-94.0765 212.268L-93.6513 213.173ZM-143.882 217.328H-144.882V218.328H-143.882V217.328ZM-143.882 198.791V197.791H-144.882V198.791H-143.882ZM-107.82 196.98L-107.437 197.904L-107.82 196.98ZM-101.322 191.547L-102.178 191.031L-102.184 191.04L-101.322 191.547ZM-101.322 173.383L-102.19 173.879L-102.185 173.888L-101.322 173.383ZM-107.874 167.736L-108.285 168.648L-108.278 168.651L-108.271 168.654L-107.874 167.736ZM-134.454 165.766V164.766H-135.454V165.766H-134.454ZM-134.454 256V257H-133.454V256H-134.454ZM-98.6051 206.355L-97.7275 205.876L-98.0118 205.355H-98.6051V206.355ZM-71.4922 256V257H-69.8066L-70.6145 255.521L-71.4922 256ZM-96.9538 256L-97.8358 256.471L-97.5533 257H-96.9538V256ZM-123.481 206.355V205.355H-125.149L-124.363 206.826L-123.481 206.355ZM-156.518 256V146.909H-158.518V256H-156.518ZM-157.518 147.909H-114.479V145.909H-157.518V147.909ZM-114.479 147.909C-106.357 147.909 -99.4885 149.362 -93.8365 152.222L-92.9334 150.438C-98.9291 147.404 -106.123 145.909 -114.479 145.909V147.909ZM-93.83 152.226C-88.1373 155.055 -83.8334 159.057 -80.8839 164.236L-79.146 163.247C-82.3044 157.701 -86.9139 153.43 -92.9399 150.435L-93.83 152.226ZM-80.8799 164.243C-77.8929 169.393 -76.3807 175.482 -76.3807 182.545H-74.3807C-74.3807 175.19 -75.9579 168.743 -79.1499 163.24L-80.8799 164.243ZM-76.3807 182.545C-76.3807 189.643 -77.9105 195.69 -80.9262 200.728L-79.2102 201.755C-75.9759 196.352 -74.3807 189.935 -74.3807 182.545H-76.3807ZM-80.9246 200.725C-83.9387 205.726 -88.3087 209.574 -94.0745 212.267L-93.2281 214.079C-87.1331 211.233 -82.4476 207.126 -79.2117 201.758L-80.9246 200.725ZM-94.0765 212.268C-99.806 214.96 -106.79 216.328 -115.065 216.328V218.328C-106.578 218.328 -99.2864 216.926 -93.226 214.078L-94.0765 212.268ZM-115.065 216.328H-143.882V218.328H-115.065V216.328ZM-142.882 217.328V198.791H-144.882V217.328H-142.882ZM-143.882 199.791H-118.793V197.791H-143.882V199.791ZM-118.793 199.791C-114.307 199.791 -110.509 199.177 -107.437 197.904L-108.203 196.056C-110.956 197.198 -114.473 197.791 -118.793 197.791V199.791ZM-107.437 197.904C-104.351 196.624 -102.004 194.679 -100.46 192.054L-102.184 191.04C-103.48 193.244 -105.466 194.921 -108.203 196.056L-107.437 197.904ZM-100.465 192.063C-98.8931 189.456 -98.1378 186.265 -98.1378 182.545H-100.138C-100.138 185.998 -100.838 188.809 -102.178 191.031L-100.465 192.063ZM-98.1378 182.545C-98.1378 178.79 -98.8927 175.551 -100.459 172.877L-102.185 173.888C-100.839 176.186 -100.138 179.055 -100.138 182.545H-98.1378ZM-100.453 172.887C-101.994 170.191 -104.355 168.172 -107.476 166.819L-108.271 168.654C-105.497 169.857 -103.49 171.603 -102.19 173.879L-100.453 172.887ZM-107.462 166.825C-110.544 165.435 -114.371 164.766 -118.9 164.766V166.766C-114.551 166.766 -111.028 167.41 -108.285 168.648L-107.462 166.825ZM-118.9 164.766H-134.454V166.766H-118.9V164.766ZM-135.454 165.766V256H-133.454V165.766H-135.454ZM-134.454 255H-157.518V257H-134.454V255ZM-99.4827 206.834L-72.3698 256.479L-70.6145 255.521L-97.7275 205.876L-99.4827 206.834ZM-71.4922 255H-96.9538V257H-71.4922V255ZM-96.0718 255.529L-122.599 205.884L-124.363 206.826L-97.8358 256.471L-96.0718 255.529ZM-123.481 207.355H-98.6051V205.355H-123.481V207.355ZM-45.2715 252.484L-45.7671 253.353L-45.761 253.356L-45.2715 252.484ZM-59.2274 237.889L-60.1158 238.348L-60.1147 238.35L-59.2274 237.889ZM-59.2274 193.305L-60.1169 192.848L-59.2274 193.305ZM-45.4313 178.443L-45.9428 177.584L-45.945 177.585L-45.4313 178.443ZM-9.36949 175.727L-9.71985 176.663L-9.71124 176.666L-9.36949 175.727ZM2.88193 183.45L2.17845 184.161L2.18207 184.165L2.88193 183.45ZM11.0851 196.447L10.1485 196.798L10.1492 196.8L11.0851 196.447ZM14.0147 220.897V221.897H15.0147V220.897H14.0147ZM-55.0726 220.897H-56.0726V221.897H-55.0726V220.897ZM-55.0726 206.835V205.835H-56.0726V206.835H-55.0726ZM-7.34534 206.835V207.835H-6.34534V206.835H-7.34534ZM-9.47603 198.152L-10.3473 198.643L-9.47603 198.152ZM-15.3887 192.239L-15.8941 193.102L-15.8868 193.106L-15.8795 193.111L-15.3887 192.239ZM-33.2331 192.452L-32.722 193.312L-32.7186 193.31L-33.2331 192.452ZM-39.4121 198.791L-38.5424 199.285L-38.5396 199.28L-39.4121 198.791ZM-41.7026 207.58L-42.7026 207.569V207.58H-41.7026ZM-39.4654 231.444L-40.3577 231.895L-40.3533 231.904L-39.4654 231.444ZM-16.2409 239.594L-16.562 238.647L-16.2409 239.594ZM-10.861 236.398L-11.5506 235.674L-10.861 236.398ZM-7.45187 231.178L-7.38603 230.18L-8.12444 230.131L-8.38687 230.823L-7.45187 231.178ZM13.5353 232.562L14.5137 232.769L14.7522 231.641L13.6012 231.565L13.5353 232.562ZM6.98349 245.773L6.2318 245.113L6.23135 245.114L6.98349 245.773ZM-5.69406 254.509L-5.32268 255.437L-5.3194 255.436L-5.69406 254.509ZM-23.5385 256.598C-31.8189 256.598 -38.8873 254.922 -44.782 251.612L-45.761 253.356C-39.5108 256.865 -32.0905 258.598 -23.5385 258.598V256.598ZM-44.7759 251.616C-50.6424 248.268 -55.16 243.546 -58.3401 237.428L-60.1147 238.35C-56.7608 244.803 -51.9744 249.811 -45.7671 253.353L-44.7759 251.616ZM-58.3391 237.43C-61.5188 231.278 -63.128 223.967 -63.128 215.464H-65.128C-65.128 224.219 -63.4702 231.858 -60.1158 238.348L-58.3391 237.43ZM-63.128 215.464C-63.128 207.178 -61.5205 199.954 -58.3381 193.762L-60.1169 192.848C-63.4684 199.369 -65.128 206.917 -65.128 215.464H-63.128ZM-58.3381 193.762C-55.1533 187.565 -50.6821 182.753 -44.9175 179.301L-45.945 177.585C-52.0412 181.236 -56.7675 186.331 -60.1169 192.848L-58.3381 193.762ZM-44.9198 179.302C-39.1314 175.857 -32.3181 174.116 -24.4441 174.116V172.116C-32.6212 172.116 -39.7994 173.927 -45.9428 177.584L-44.9198 179.302ZM-24.4441 174.116C-19.1556 174.116 -14.2504 174.969 -9.71983 176.663L-9.01915 174.79C-13.7925 173.004 -18.9371 172.116 -24.4441 172.116V174.116ZM-9.71124 176.666C-5.15683 178.323 -1.19708 180.82 2.17845 184.161L3.5854 182.74C0.000701904 179.191 -4.20715 176.54 -9.02776 174.787L-9.71124 176.666ZM2.18207 184.165C5.58005 187.494 8.23984 191.697 10.1485 196.798L12.0216 196.097C10.024 190.758 7.21506 186.296 3.58179 182.736L2.18207 184.165ZM10.1492 196.8C12.0506 201.847 13.0147 207.795 13.0147 214.665H15.0147C15.0147 207.614 14.0257 201.417 12.0209 196.095L10.1492 196.8ZM13.0147 214.665V220.897H15.0147V214.665H13.0147ZM14.0147 219.897H-55.0726V221.897H14.0147V219.897ZM-54.0726 220.897V206.835H-56.0726V220.897H-54.0726ZM-55.0726 207.835H-7.34534V205.835H-55.0726V207.835ZM-6.34534 206.835C-6.34534 203.418 -7.08949 200.351 -8.60478 197.661L-10.3473 198.643C-9.02165 200.996 -8.34534 203.717 -8.34534 206.835H-6.34534ZM-8.60478 197.661C-10.1149 194.981 -12.2173 192.878 -14.8978 191.368L-15.8795 193.111C-13.5174 194.441 -11.6781 196.281 -10.3473 198.643L-8.60478 197.661ZM-14.8833 191.376C-17.5437 189.818 -20.6174 189.055 -24.0712 189.055V191.055C-20.9199 191.055 -18.2053 191.749 -15.8941 193.102L-14.8833 191.376ZM-24.0712 189.055C-27.6767 189.055 -30.9123 189.894 -33.7476 191.595L-32.7186 193.31C-30.2272 191.815 -27.3549 191.055 -24.0712 191.055V189.055ZM-33.7442 191.593C-36.5228 193.245 -38.7072 195.486 -40.2846 198.303L-38.5396 199.28C-37.1341 196.77 -35.1992 194.785 -32.7221 193.312L-33.7442 191.593ZM-40.2818 198.298C-41.8626 201.083 -42.6653 204.181 -42.7025 207.569L-40.7027 207.591C-40.6689 204.517 -39.9445 201.755 -38.5424 199.285L-40.2818 198.298ZM-42.7026 207.58V220.95H-40.7026V207.58H-42.7026ZM-42.7026 220.95C-42.7026 225.121 -41.9342 228.78 -40.3576 231.895L-38.5731 230.992C-39.9796 228.213 -40.7026 224.877 -40.7026 220.95H-42.7026ZM-40.3533 231.904C-38.7419 235.014 -36.4617 237.431 -33.5198 239.128L-32.5203 237.396C-35.1181 235.897 -37.1349 233.768 -38.5775 230.984L-40.3533 231.904ZM-33.5198 239.128C-30.5716 240.829 -27.1077 241.659 -23.1657 241.659V239.659C-26.8231 239.659 -29.9288 238.891 -32.5203 237.396L-33.5198 239.128ZM-23.1657 241.659C-20.5502 241.659 -18.1318 241.291 -15.9199 240.541L-16.562 238.647C-18.5404 239.317 -20.7385 239.659 -23.1657 239.659V241.659ZM-15.9199 240.541C-13.6975 239.787 -11.7757 238.65 -10.1713 237.122L-11.5506 235.674C-12.9292 236.987 -14.5941 237.98 -16.562 238.647L-15.9199 240.541ZM-10.1713 237.122C-8.564 235.591 -7.34746 233.722 -6.51688 231.532L-8.38687 230.823C-9.1188 232.753 -10.175 234.363 -11.5506 235.674L-10.1713 237.122ZM-7.51773 232.175L13.4695 233.56L13.6012 231.565L-7.38603 230.18L-7.51773 232.175ZM12.5569 232.356C11.526 237.236 9.41779 241.482 6.2318 245.113L7.73518 246.432C11.1543 242.535 13.414 237.975 14.5137 232.769L12.5569 232.356ZM6.23135 245.114C3.07996 248.71 -1.01042 251.537 -6.06874 253.581L-5.3194 255.436C-0.00840759 253.289 4.35294 250.292 7.73563 246.432L6.23135 245.114ZM-6.06546 253.58C-11.0739 255.583 -16.8918 256.598 -23.5385 256.598V258.598C-16.6909 258.598 -10.6125 257.553 -5.32268 255.437L-6.06546 253.58ZM96.8983 197.513L96.9597 198.511L98.0301 198.445L97.8896 197.382L96.8983 197.513ZM76.1241 198.791L75.1435 198.987L75.3147 199.843L76.1855 199.789L76.1241 198.791ZM73.8336 193.997L73.0546 194.624L73.0623 194.634L73.8336 193.997ZM69.1994 190.535L68.7728 191.439L68.783 191.444L68.7933 191.449L69.1994 190.535ZM53.5389 191.44L54.0553 192.297L54.0644 192.291L53.5389 191.44ZM52.2605 202.254L51.6069 203.01L52.2605 202.254ZM60.3038 205.503L60.0936 206.481L60.1063 206.483L60.3038 205.503ZM75.112 208.486L75.3132 207.506L75.3095 207.505L75.112 208.486ZM92.9032 216.369L92.2233 217.103L92.9032 216.369ZM94.0219 244.761L93.2336 244.145L93.2303 244.15L94.0219 244.761ZM81.1312 254.242L81.512 255.167L81.515 255.166L81.1312 254.242ZM36.4402 250.833L35.8606 251.648L35.8658 251.652L36.4402 250.833ZM25.2008 232.296L25.1484 231.298L24.0583 231.355L24.2106 232.436L25.2008 232.296ZM47.5197 231.124L48.4995 230.924L48.3271 230.081L47.4673 230.126L47.5197 231.124ZM52.4203 238.688L51.8629 239.519L51.8709 239.524L52.4203 238.688ZM71.9693 238.955L72.5038 239.8L72.5069 239.798L71.9693 238.955ZM75.698 232.935L76.6979 232.95L76.6981 232.934L76.6978 232.918L75.698 232.935ZM73.0879 227.875L72.4671 228.659L72.4774 228.667L73.0879 227.875ZM65.2044 224.786L65.4005 223.805L65.3998 223.805L65.2044 224.786ZM51.0353 221.962L50.8392 222.943L50.8399 222.943L51.0353 221.962ZM33.1909 213.653L32.4774 214.353L32.4806 214.357L33.1909 213.653ZM31.6461 184.995L30.8488 184.391L30.8452 184.396L31.6461 184.995ZM43.7377 176.206L43.3707 175.276L43.3686 175.277L43.7377 176.206ZM86.4579 179.668L85.8649 180.473L85.8672 180.475L86.4579 179.668ZM96.8369 196.515L76.0627 197.793L76.1855 199.789L96.9597 198.511L96.8369 196.515ZM77.1047 198.595C76.7167 196.655 75.88 194.906 74.605 193.361L73.0623 194.634C74.131 195.929 74.8213 197.376 75.1435 198.987L77.1047 198.595ZM74.6126 193.37C73.3294 191.776 71.6504 190.53 69.6055 189.621L68.7933 191.449C70.5836 192.244 71.9942 193.307 73.0546 194.624L74.6126 193.37ZM69.626 189.63C67.5802 188.665 65.1722 188.203 62.4345 188.203V190.203C64.9524 190.203 67.0544 190.629 68.7728 191.439L69.626 189.63ZM62.4345 188.203C58.7774 188.203 55.6199 188.98 53.0134 190.59L54.0644 192.291C56.2874 190.918 59.0603 190.203 62.4345 190.203V188.203ZM53.0225 190.584C50.3613 192.189 48.9167 194.44 48.9167 197.3H50.9167C50.9167 195.258 51.8869 193.604 54.0552 192.297L53.0225 190.584ZM48.9167 197.3C48.9167 199.562 49.8387 201.483 51.6069 203.01L52.9141 201.497C51.5573 200.325 50.9167 198.944 50.9167 197.3H48.9167ZM51.6069 203.01C53.3652 204.529 56.251 205.655 60.0936 206.48L60.514 204.525C56.7572 203.718 54.2808 202.677 52.9141 201.497L51.6069 203.01ZM60.1063 206.483L74.9146 209.466L75.3095 207.505L60.5013 204.523L60.1063 206.483ZM74.9109 209.465C82.7731 211.08 88.5039 213.654 92.2233 217.103L93.5832 215.636C89.4901 211.841 83.3601 209.159 75.3132 207.506L74.9109 209.465ZM92.2233 217.103C95.9025 220.514 97.7626 224.995 97.7626 230.645H99.7626C99.7626 224.505 97.7165 219.469 93.5832 215.636L92.2233 217.103ZM97.7626 230.645C97.7626 235.795 96.2505 240.281 93.2336 244.145L94.8101 245.376C98.1142 241.144 99.7626 236.22 99.7626 230.645H97.7626ZM93.2303 244.15C90.2275 248.04 86.0811 251.102 80.7475 253.319L81.515 255.166C87.1189 252.837 91.5662 249.578 94.8134 245.372L93.2303 244.15ZM80.7505 253.318C75.4604 255.496 69.3262 256.598 62.328 256.598V258.598C69.5342 258.598 75.9356 257.463 81.512 255.167L80.7505 253.318ZM62.328 256.598C51.6266 256.598 43.2208 254.369 37.0145 250.014L35.8658 251.652C42.5146 256.317 51.3674 258.598 62.328 258.598V256.598ZM37.0197 250.018C30.853 245.633 27.2538 239.699 26.191 232.157L24.2106 232.436C25.3495 240.518 29.2433 246.942 35.8606 251.648L37.0197 250.018ZM25.2533 233.295L47.5721 232.123L47.4673 230.126L25.1484 231.298L25.2533 233.295ZM46.5399 231.324C47.2626 234.862 49.0341 237.62 51.863 239.519L52.9776 237.858C50.6218 236.277 49.1262 233.992 48.4995 230.924L46.5399 231.324ZM51.8709 239.524C54.6693 241.364 58.1964 242.245 62.3812 242.245V240.245C58.4695 240.245 55.3559 239.422 52.9697 237.853L51.8709 239.524ZM62.3812 242.245C66.4765 242.245 69.878 241.46 72.5037 239.8L71.4348 238.109C69.231 239.503 66.2405 240.245 62.3812 240.245V242.245ZM72.5069 239.798C75.1799 238.093 76.6565 235.803 76.6979 232.95L74.6981 232.921C74.6684 234.968 73.6592 236.691 71.4316 238.111L72.5069 239.798ZM76.6978 232.918C76.6568 230.539 75.6313 228.573 73.6984 227.083L72.4774 228.667C73.9536 229.805 74.6681 231.212 74.6981 232.953L76.6978 232.918ZM73.7086 227.091C71.8236 225.599 69.016 224.528 65.4005 223.805L65.0083 225.766C68.495 226.463 70.9431 227.452 72.4672 228.659L73.7086 227.091ZM65.3998 223.805L51.2307 220.982L50.8399 222.943L65.009 225.766L65.3998 223.805ZM51.2314 220.982C43.35 219.405 37.616 216.697 33.9012 212.949L32.4806 214.357C36.5782 218.492 42.7406 221.323 50.8392 222.943L51.2314 220.982ZM33.9044 212.952C30.2374 209.218 28.3848 204.454 28.3848 198.578H26.3848C26.3848 204.918 28.4028 210.204 32.4774 214.353L33.9044 212.952ZM28.3848 198.578C28.3848 193.514 29.7493 189.202 32.447 185.594L30.8452 184.396C27.8611 188.387 26.3848 193.131 26.3848 198.578H28.3848ZM32.4434 185.599C35.192 181.968 39.0627 179.139 44.1069 177.135L43.3686 175.277C38.0435 177.392 33.8531 180.423 30.8488 184.391L32.4434 185.599ZM44.1048 177.136C49.1832 175.132 55.1616 174.116 62.0616 174.116V172.116C54.9701 172.116 48.7327 173.16 43.3707 175.276L44.1048 177.136ZM62.0616 174.116C72.2657 174.116 80.1633 176.274 85.8649 180.473L87.0509 178.863C80.8918 174.327 72.5251 172.116 62.0616 172.116V174.116ZM85.8672 180.475C91.6063 184.677 94.9472 190.378 95.9069 197.644L97.8896 197.382C96.8607 189.591 93.2414 183.395 87.0487 178.861L85.8672 180.475ZM165.52 221.163H164.519L164.52 221.173L165.52 221.163ZM165.52 174.182V173.182H164.52V174.182H165.52ZM188.211 174.182H189.211V173.182H188.211V174.182ZM188.211 256V257H189.211V256H188.211ZM166.425 256H165.425V257H166.425V256ZM166.425 241.138H167.425V240.138H166.425V241.138ZM165.573 241.138V240.138H164.886L164.64 240.779L165.573 241.138ZM156.358 252.697L155.797 251.87L155.793 251.872L156.358 252.697ZM126.315 253.337L126.828 252.479L126.315 253.337ZM116.567 242.737L115.674 243.186L115.677 243.192L116.567 242.737ZM113.051 226.277H112.051L112.052 226.283L113.051 226.277ZM113.051 174.182V173.182H112.051V174.182H113.051ZM135.743 174.182H136.743V173.182H135.743V174.182ZM135.743 222.229H134.743L134.743 222.236L135.743 222.229ZM139.632 233.681L140.371 233.008L139.632 233.681ZM157.583 236.025L158.046 236.911L158.056 236.906L157.583 236.025ZM163.336 230.379L162.478 229.864L162.473 229.873L163.336 230.379ZM166.52 221.163V174.182H164.52V221.163H166.52ZM165.52 175.182H188.211V173.182H165.52V175.182ZM187.211 174.182V256H189.211V174.182H187.211ZM188.211 255H166.425V257H188.211V255ZM167.425 256V241.138H165.425V256H167.425ZM166.425 240.138H165.573V242.138H166.425V240.138ZM164.64 240.779C162.867 245.381 159.926 249.071 155.797 251.87L156.919 253.525C161.383 250.5 164.585 246.485 166.506 241.498L164.64 240.779ZM155.793 251.872C151.728 254.65 146.732 256.065 140.75 256.065V258.065C147.056 258.065 152.465 256.569 156.922 253.523L155.793 251.872ZM140.75 256.065C135.438 256.065 130.809 254.86 126.828 252.479L125.802 254.195C130.131 256.785 135.125 258.065 140.75 258.065V256.065ZM126.828 252.479C122.845 250.095 119.721 246.706 117.457 242.281L115.677 243.192C118.1 247.929 121.476 251.607 125.802 254.195L126.828 252.479ZM117.46 242.287C115.236 237.873 114.086 232.546 114.051 226.271L112.052 226.283C112.088 232.792 113.281 238.438 115.674 243.186L117.46 242.287ZM114.051 226.277V174.182H112.051V226.277H114.051ZM113.051 175.182H135.743V173.182H113.051V175.182ZM134.743 174.182V222.229H136.743V174.182H134.743ZM134.743 222.236C134.78 227.243 136.128 231.321 138.893 234.355L140.371 233.008C138.022 230.43 136.777 226.874 136.743 222.221L134.743 222.236ZM138.893 234.355C141.665 237.397 145.375 238.889 149.912 238.889V236.889C145.856 236.889 142.712 235.576 140.371 233.008L138.893 234.355ZM149.912 238.889C152.805 238.889 155.521 238.23 158.046 236.911L157.12 235.139C154.886 236.305 152.489 236.889 149.912 236.889V238.889ZM158.056 236.906C160.608 235.535 162.656 233.517 164.198 230.884L162.473 229.873C161.103 232.211 159.316 233.958 157.109 235.144L158.056 236.906ZM164.193 230.893C165.801 228.212 166.556 224.948 166.519 221.154L164.52 221.173C164.554 224.694 163.853 227.573 162.478 229.864L164.193 230.893ZM229.054 146.909H230.054V145.909H229.054V146.909ZM229.054 256V257H230.054V256H229.054ZM206.362 256H205.362V257H206.362V256ZM206.362 146.909V145.909H205.362V146.909H206.362ZM228.054 146.909V256H230.054V146.909H228.054ZM229.054 255H206.362V257H229.054V255ZM207.362 256V146.909H205.362V256H207.362ZM206.362 147.909H229.054V145.909H206.362V147.909ZM290.75 174.182H291.75V173.182H290.75V174.182ZM290.75 191.227V192.227H291.75V191.227H290.75ZM241.478 191.227H240.478V192.227H241.478V191.227ZM241.478 174.182V173.182H240.478V174.182H241.478ZM252.664 154.58V153.58H251.664V154.58H252.664ZM275.356 154.58H276.356V153.58H275.356V154.58ZM276.315 235.759L275.437 236.237L275.443 236.249L276.315 235.759ZM278.978 238.156L278.602 239.082L278.612 239.086L278.978 238.156ZM286.223 238.582L286.387 239.568L286.403 239.565L286.419 239.562L286.223 238.582ZM288.673 238.102L289.651 237.895L289.449 236.939L288.489 237.119L288.673 238.102ZM292.242 254.988L292.54 255.942L293.408 255.671L293.22 254.781L292.242 254.988ZM287.448 256.213L287.229 255.237L287.221 255.239L287.213 255.241L287.448 256.213ZM279.937 257.119L279.901 256.119L279.898 256.119L279.937 257.119ZM265.555 254.935L265.177 255.86L265.18 255.861L265.555 254.935ZM256.02 247.158L256.86 246.615L256.02 247.158ZM252.664 233.841L253.664 233.848V233.841H252.664ZM289.75 174.182V191.227H291.75V174.182H289.75ZM290.75 190.227H241.478V192.227H290.75V190.227ZM242.478 191.227V174.182H240.478V191.227H242.478ZM241.478 175.182H290.75V173.182H241.478V175.182ZM252.664 155.58H275.356V153.58H252.664V155.58ZM274.356 154.58V230.858H276.356V154.58H274.356ZM274.356 230.858C274.356 233.034 274.685 234.858 275.437 236.237L277.193 235.28C276.667 234.315 276.356 232.872 276.356 230.858H274.356ZM275.443 236.249C276.186 237.569 277.242 238.53 278.602 239.082L279.355 237.229C278.442 236.858 277.722 236.221 277.187 235.268L275.443 236.249ZM278.612 239.086C279.922 239.602 281.4 239.848 283.027 239.848V237.848C281.599 237.848 280.378 237.632 279.345 237.225L278.612 239.086ZM283.027 239.848C284.148 239.848 285.268 239.755 286.387 239.568L286.058 237.595C285.047 237.764 284.036 237.848 283.027 237.848V239.848ZM286.419 239.562C287.483 239.349 288.295 239.191 288.857 239.085L288.489 237.119C287.914 237.227 287.093 237.388 286.027 237.601L286.419 239.562ZM287.695 238.309L291.263 255.195L293.22 254.781L289.651 237.895L287.695 238.309ZM291.944 254.033C290.846 254.376 289.279 254.778 287.229 255.237L287.667 257.189C289.736 256.725 291.365 256.31 292.54 255.942L291.944 254.033ZM287.213 255.241C285.238 255.718 282.805 256.014 279.901 256.119L279.973 258.118C282.964 258.01 285.538 257.703 287.682 257.185L287.213 255.241ZM279.898 256.119C274.539 256.328 269.892 255.613 265.931 254.008L265.18 255.861C269.457 257.595 274.398 258.335 279.976 258.118L279.898 256.119ZM265.933 254.009C262.028 252.413 259.016 249.949 256.86 246.615L255.18 247.701C257.57 251.398 260.914 254.118 265.177 255.86L265.933 254.009ZM256.86 246.615C254.719 243.303 253.63 239.069 253.664 233.848L251.664 233.834C251.628 239.337 252.776 243.981 255.18 247.701L256.86 246.615ZM253.664 233.841V154.58H251.664V233.841H253.664ZM372.582 197.513L372.643 198.511L373.714 198.445L373.573 197.382L372.582 197.513ZM351.808 198.791L350.827 198.987L350.998 199.843L351.869 199.789L351.808 198.791ZM349.517 193.997L348.738 194.624L348.746 194.634L349.517 193.997ZM344.883 190.535L344.456 191.439L344.467 191.444L344.477 191.449L344.883 190.535ZM329.222 191.44L329.739 192.297L329.748 192.291L329.222 191.44ZM327.944 202.254L327.29 203.01H327.29L327.944 202.254ZM335.987 205.503L335.777 206.481L335.79 206.483L335.987 205.503ZM350.796 208.486L350.997 207.506L350.993 207.505L350.796 208.486ZM368.587 216.369L367.907 217.103L368.587 216.369ZM369.705 244.761L368.917 244.145L368.914 244.15L369.705 244.761ZM356.815 254.242L357.196 255.167L357.199 255.166L356.815 254.242ZM312.124 250.833L311.544 251.648L311.549 251.652L312.124 250.833ZM300.884 232.296L300.832 231.298L299.742 231.355L299.894 232.436L300.884 232.296ZM323.203 231.124L324.183 230.924L324.011 230.081L323.151 230.126L323.203 231.124ZM328.104 238.688L327.547 239.519L327.554 239.524L328.104 238.688ZM347.653 238.955L348.187 239.8L348.191 239.798L347.653 238.955ZM351.382 232.935L352.381 232.95L352.382 232.934L352.381 232.918L351.382 232.935ZM348.771 227.875L348.151 228.659L348.161 228.667L348.771 227.875ZM340.888 224.786L341.084 223.805L341.083 223.805L340.888 224.786ZM326.719 221.962L326.523 222.943L326.524 222.943L326.719 221.962ZM308.874 213.653L308.161 214.353L308.164 214.357L308.874 213.653ZM307.33 184.995L306.532 184.391L306.529 184.396L307.33 184.995ZM319.421 176.206L319.054 175.276L319.052 175.277L319.421 176.206ZM362.142 179.668L361.548 180.473L361.551 180.475L362.142 179.668ZM372.52 196.515L351.746 197.793L351.869 199.789L372.643 198.511L372.52 196.515ZM352.788 198.595C352.4 196.655 351.564 194.906 350.289 193.361L348.746 194.634C349.815 195.929 350.505 197.376 350.827 198.987L352.788 198.595ZM350.296 193.37C349.013 191.776 347.334 190.53 345.289 189.621L344.477 191.449C346.267 192.244 347.678 193.307 348.738 194.624L350.296 193.37ZM345.31 189.63C343.264 188.665 340.856 188.203 338.118 188.203V190.203C340.636 190.203 342.738 190.629 344.456 191.439L345.31 189.63ZM338.118 188.203C334.461 188.203 331.303 188.98 328.697 190.59L329.748 192.291C331.971 190.918 334.744 190.203 338.118 190.203V188.203ZM328.706 190.584C326.045 192.189 324.6 194.44 324.6 197.3H326.6C326.6 195.258 327.57 193.604 329.739 192.297L328.706 190.584ZM324.6 197.3C324.6 199.562 325.522 201.483 327.29 203.01L328.598 201.497C327.241 200.325 326.6 198.944 326.6 197.3H324.6ZM327.29 203.01C329.049 204.529 331.935 205.655 335.777 206.48L336.198 204.525C332.441 203.718 329.964 202.677 328.598 201.497L327.29 203.01ZM335.79 206.483L350.598 209.466L350.993 207.505L336.185 204.523L335.79 206.483ZM350.594 209.465C358.457 211.08 364.187 213.654 367.907 217.103L369.267 215.636C365.174 211.841 359.044 209.159 350.997 207.506L350.594 209.465ZM367.907 217.103C371.586 220.514 373.446 224.995 373.446 230.645H375.446C375.446 224.505 373.4 219.469 369.267 215.636L367.907 217.103ZM373.446 230.645C373.446 235.795 371.934 240.281 368.917 244.145L370.494 245.376C373.798 241.144 375.446 236.22 375.446 230.645H373.446ZM368.914 244.15C365.911 248.04 361.765 251.102 356.431 253.319L357.199 255.166C362.802 252.837 367.25 249.578 370.497 245.372L368.914 244.15ZM356.434 253.318C351.144 255.496 345.01 256.598 338.012 256.598V258.598C345.218 258.598 351.619 257.463 357.196 255.167L356.434 253.318ZM338.012 256.598C327.31 256.598 318.904 254.369 312.698 250.014L311.549 251.652C318.198 256.317 327.051 258.598 338.012 258.598V256.598ZM312.703 250.018C306.537 245.633 302.937 239.699 301.875 232.157L299.894 232.436C301.033 240.518 304.927 246.942 311.544 251.648L312.703 250.018ZM300.937 233.295L323.256 232.123L323.151 230.126L300.832 231.298L300.937 233.295ZM322.224 231.324C322.946 234.862 324.718 237.62 327.547 239.519L328.661 237.858C326.305 236.277 324.81 233.992 324.183 230.924L322.224 231.324ZM327.554 239.524C330.353 241.364 333.88 242.245 338.065 242.245V240.245C334.153 240.245 331.039 239.422 328.653 237.853L327.554 239.524ZM338.065 242.245C342.16 242.245 345.562 241.46 348.187 239.8L347.118 238.109C344.915 239.503 341.924 240.245 338.065 240.245V242.245ZM348.191 239.798C350.864 238.093 352.34 235.803 352.381 232.95L350.382 232.921C350.352 234.968 349.343 236.691 347.115 238.111L348.191 239.798ZM352.381 232.918C352.34 230.539 351.315 228.573 349.382 227.083L348.161 228.667C349.637 229.805 350.352 231.212 350.382 232.953L352.381 232.918ZM349.392 227.091C347.507 225.599 344.7 224.528 341.084 223.805L340.692 225.766C344.179 226.463 346.627 227.452 348.151 228.659L349.392 227.091ZM341.083 223.805L326.914 220.982L326.524 222.943L340.693 225.766L341.083 223.805ZM326.915 220.982C319.034 219.405 313.3 216.697 309.585 212.949L308.164 214.357C312.262 218.492 318.424 221.323 326.523 222.943L326.915 220.982ZM309.588 212.952C305.921 209.218 304.068 204.454 304.068 198.578H302.068C302.068 204.918 304.086 210.204 308.161 214.353L309.588 212.952ZM304.068 198.578C304.068 193.514 305.433 189.202 308.131 185.594L306.529 184.396C303.545 188.387 302.068 193.131 302.068 198.578H304.068ZM308.127 185.599C310.876 181.968 314.746 179.139 319.791 177.135L319.052 175.277C313.727 177.392 309.537 180.423 306.532 184.391L308.127 185.599ZM319.788 177.136C324.867 175.132 330.845 174.116 337.745 174.116V172.116C330.654 172.116 324.416 173.16 319.054 175.276L319.788 177.136ZM337.745 174.116C347.949 174.116 355.847 176.274 361.548 180.473L362.735 178.863C356.575 174.327 348.209 172.116 337.745 172.116V174.116ZM361.551 180.475C367.29 184.677 370.631 190.378 371.59 197.644L373.573 197.382C372.544 189.591 368.925 183.395 362.732 178.861L361.551 180.475Z" fill="black" fill-opacity="0.1" mask="url(#path-1-outside-1_638_3253)"/>
</svg>
