<svg width="288" height="196" viewBox="0 0 288 196" fill="none" xmlns="http://www.w3.org/2000/svg">
<mask id="path-1-outside-1_638_3254" maskUnits="userSpaceOnUse" x="-1" y="-1" width="507" height="198" fill="black">
<rect fill="white" x="-1" y="-1" width="507" height="198"/>
<path d="M0.321023 73V0.272725H49.3267V12.9503H15.6974V30.2798H46.8054V42.9574H15.6974V60.3224H49.4688V73H0.321023ZM76.3952 41.4659V73H61.2674V18.4545H75.685V28.0781H76.3242C77.5316 24.9058 79.5558 22.3963 82.3967 20.5497C85.2376 18.6795 88.6822 17.7443 92.7305 17.7443C96.5183 17.7443 99.8209 18.5729 102.638 20.2301C105.455 21.8873 107.645 24.2547 109.208 27.3324C110.77 30.3864 111.551 34.0322 111.551 38.2699V73H96.4237V40.9688C96.4473 37.6307 95.5951 35.0265 93.8668 33.1562C92.1386 31.2623 89.7594 30.3153 86.729 30.3153C84.6931 30.3153 82.8938 30.7533 81.3313 31.6293C79.7925 32.5052 78.5851 33.7836 77.7092 35.4645C76.8569 37.1217 76.4189 39.1222 76.3952 41.4659ZM143.574 73.8878C139.431 73.8878 135.679 72.8224 132.317 70.6918C128.979 68.5374 126.327 65.3769 124.362 61.2102C122.421 57.0199 121.45 51.8826 121.45 45.7983C121.45 39.5483 122.456 34.3518 124.469 30.2088C126.481 26.0421 129.156 22.929 132.494 20.8693C135.856 18.786 139.537 17.7443 143.538 17.7443C146.592 17.7443 149.137 18.2652 151.173 19.3068C153.233 20.3248 154.89 21.6032 156.145 23.142C157.423 24.6572 158.394 26.1487 159.057 27.6165H159.518V0.272725H174.611V73H159.696V64.2642H159.057C158.347 65.7794 157.34 67.2827 156.038 68.7741C154.76 70.242 153.091 71.4612 151.031 72.4318C148.995 73.4025 146.509 73.8878 143.574 73.8878ZM148.368 61.8494C150.806 61.8494 152.866 61.1866 154.547 59.8608C156.251 58.5114 157.554 56.6293 158.453 54.2145C159.376 51.7997 159.838 48.9706 159.838 45.7273C159.838 42.4839 159.388 39.6667 158.489 37.2756C157.589 34.8845 156.287 33.0379 154.582 31.7358C152.878 30.4337 150.806 29.7827 148.368 29.7827C145.882 29.7827 143.787 30.4574 142.082 31.8068C140.378 33.1562 139.088 35.0265 138.212 37.4176C137.336 39.8087 136.898 42.5786 136.898 45.7273C136.898 48.8996 137.336 51.705 138.212 54.1435C139.111 56.5582 140.402 58.4522 142.082 59.8253C143.787 61.1747 145.882 61.8494 148.368 61.8494ZM202.176 0.272725V73H187.049V0.272725H202.176ZM239.153 74.0653C233.542 74.0653 228.712 72.929 224.664 70.6562C220.639 68.3598 217.538 65.1165 215.36 60.9261C213.182 56.7121 212.093 51.7287 212.093 45.9759C212.093 40.3651 213.182 35.4408 215.36 31.2031C217.538 26.9654 220.604 23.6629 224.558 21.2955C228.535 18.928 233.199 17.7443 238.549 17.7443C242.147 17.7443 245.497 18.3243 248.599 19.4844C251.724 20.6207 254.446 22.3371 256.766 24.6335C259.11 26.9299 260.933 29.8182 262.235 33.2983C263.537 36.7547 264.188 40.803 264.188 45.4432V49.598H218.13V40.223H249.948C249.948 38.045 249.475 36.1155 248.528 34.4347C247.581 32.7538 246.267 31.4399 244.586 30.4929C242.929 29.5223 240.999 29.0369 238.798 29.0369C236.501 29.0369 234.465 29.5696 232.69 30.6349C230.938 31.6766 229.565 33.0852 228.57 34.8608C227.576 36.6127 227.067 38.5658 227.043 40.7202V49.6335C227.043 52.3324 227.54 54.6643 228.535 56.6293C229.553 58.5942 230.985 60.1094 232.832 61.1747C234.678 62.2401 236.868 62.7727 239.401 62.7727C241.082 62.7727 242.621 62.536 244.018 62.0625C245.415 61.589 246.61 60.8788 247.604 59.9318C248.599 58.9848 249.356 57.8248 249.877 56.4517L263.869 57.375C263.158 60.7367 261.702 63.6723 259.501 66.1818C257.323 68.6676 254.505 70.6089 251.049 72.0057C247.616 73.3788 243.651 74.0653 239.153 74.0653ZM319.444 34.0085L305.594 34.8608C305.358 33.6771 304.849 32.6117 304.067 31.6648C303.286 30.6941 302.256 29.9247 300.978 29.3565C299.723 28.7647 298.22 28.4688 296.468 28.4688C294.124 28.4688 292.147 28.9659 290.538 29.9602C288.928 30.9309 288.123 32.233 288.123 33.8665C288.123 35.1686 288.644 36.2694 289.685 37.169C290.727 38.0687 292.514 38.7907 295.048 39.3352L304.92 41.3239C310.223 42.4129 314.176 44.1648 316.781 46.5795C319.385 48.9943 320.687 52.1667 320.687 56.0966C320.687 59.6714 319.633 62.8082 317.526 65.5071C315.443 68.206 312.578 70.313 308.933 71.8281C305.31 73.3196 301.132 74.0653 296.397 74.0653C289.176 74.0653 283.424 72.562 279.138 69.5554C274.877 66.5251 272.379 62.4058 271.646 57.1974L286.525 56.4162C286.975 58.6179 288.064 60.2988 289.792 61.4588C291.52 62.5952 293.734 63.1634 296.433 63.1634C299.084 63.1634 301.215 62.6544 302.825 61.6364C304.458 60.5947 305.287 59.2571 305.31 57.6236C305.287 56.2505 304.707 55.1259 303.57 54.25C302.434 53.3504 300.682 52.6638 298.315 52.1903L288.869 50.3082C283.542 49.2429 279.576 47.3963 276.972 44.7685C274.392 42.1406 273.102 38.7907 273.102 34.7188C273.102 31.215 274.049 28.1965 275.942 25.6634C277.86 23.1302 280.547 21.1771 284.004 19.804C287.484 18.4309 291.556 17.7443 296.219 17.7443C303.109 17.7443 308.53 19.2003 312.484 22.1122C316.461 25.0241 318.781 28.9896 319.444 34.0085ZM375.596 34.0085L361.747 34.8608C361.51 33.6771 361.001 32.6117 360.22 31.6648C359.439 30.6941 358.409 29.9247 357.13 29.3565C355.876 28.7647 354.372 28.4688 352.62 28.4688C350.277 28.4688 348.3 28.9659 346.69 29.9602C345.08 30.9309 344.275 32.233 344.275 33.8665C344.275 35.1686 344.796 36.2694 345.838 37.169C346.879 38.0687 348.667 38.7907 351.2 39.3352L361.072 41.3239C366.375 42.4129 370.329 44.1648 372.933 46.5795C375.537 48.9943 376.839 52.1667 376.839 56.0966C376.839 59.6714 375.786 62.8082 373.679 65.5071C371.595 68.206 368.731 70.313 365.085 71.8281C361.463 73.3196 357.284 74.0653 352.549 74.0653C345.329 74.0653 339.576 72.562 335.291 69.5554C331.029 66.5251 328.532 62.4058 327.798 57.1974L342.677 56.4162C343.127 58.6179 344.216 60.2988 345.944 61.4588C347.672 62.5952 349.886 63.1634 352.585 63.1634C355.236 63.1634 357.367 62.6544 358.977 61.6364C360.61 60.5947 361.439 59.2571 361.463 57.6236C361.439 56.2505 360.859 55.1259 359.723 54.25C358.586 53.3504 356.834 52.6638 354.467 52.1903L345.021 50.3082C339.694 49.2429 335.729 47.3963 333.125 44.7685C330.544 42.1406 329.254 38.7907 329.254 34.7188C329.254 31.215 330.201 28.1965 332.095 25.6634C334.012 23.1302 336.699 21.1771 340.156 19.804C343.636 18.4309 347.708 17.7443 352.372 17.7443C359.261 17.7443 364.682 19.2003 368.636 22.1122C372.613 25.0241 374.933 28.9896 375.596 34.0085ZM15.6974 121.273V194H0.321023V121.273H15.6974ZM43.1921 162.466V194H28.0643V139.455H42.4819V149.078H43.1211C44.3285 145.906 46.3526 143.396 49.1935 141.55C52.0344 139.679 55.479 138.744 59.5273 138.744C63.3152 138.744 66.6178 139.573 69.435 141.23C72.2523 142.887 74.4421 145.255 76.0046 148.332C77.5671 151.386 78.3484 155.032 78.3484 159.27V194H63.2205V161.969C63.2442 158.631 62.3919 156.027 60.6637 154.156C58.9355 152.262 56.5562 151.315 53.5259 151.315C51.4899 151.315 49.6907 151.753 48.1282 152.629C46.5894 153.505 45.382 154.784 44.506 156.464C43.6538 158.122 43.2158 160.122 43.1921 162.466ZM105.399 162.466V194H90.2713V139.455H104.689V149.078H105.328C106.536 145.906 108.56 143.396 111.401 141.55C114.241 139.679 117.686 138.744 121.734 138.744C125.522 138.744 128.825 139.573 131.642 141.23C134.459 142.887 136.649 145.255 138.212 148.332C139.774 151.386 140.555 155.032 140.555 159.27V194H125.428V161.969C125.451 158.631 124.599 156.027 122.871 154.156C121.143 152.262 118.763 151.315 115.733 151.315C113.697 151.315 111.898 151.753 110.335 152.629C108.796 153.505 107.589 154.784 106.713 156.464C105.861 158.122 105.423 160.122 105.399 162.466ZM177.123 195.065C171.607 195.065 166.837 193.893 162.812 191.55C158.811 189.182 155.722 185.892 153.544 181.678C151.366 177.44 150.277 172.527 150.277 166.94C150.277 161.306 151.366 156.382 153.544 152.168C155.722 147.93 158.811 144.639 162.812 142.295C166.837 139.928 171.607 138.744 177.123 138.744C182.639 138.744 187.398 139.928 191.399 142.295C195.423 144.639 198.525 147.93 200.703 152.168C202.881 156.382 203.97 161.306 203.97 166.94C203.97 172.527 202.881 177.44 200.703 181.678C198.525 185.892 195.423 189.182 191.399 191.55C187.398 193.893 182.639 195.065 177.123 195.065ZM177.194 183.347C179.704 183.347 181.799 182.636 183.48 181.216C185.161 179.772 186.427 177.807 187.279 175.321C188.155 172.835 188.593 170.006 188.593 166.834C188.593 163.661 188.155 160.832 187.279 158.347C186.427 155.861 185.161 153.896 183.48 152.452C181.799 151.008 179.704 150.286 177.194 150.286C174.661 150.286 172.53 151.008 170.802 152.452C169.098 153.896 167.807 155.861 166.931 158.347C166.079 160.832 165.653 163.661 165.653 166.834C165.653 170.006 166.079 172.835 166.931 175.321C167.807 177.807 169.098 179.772 170.802 181.216C172.53 182.636 174.661 183.347 177.194 183.347ZM262.901 139.455L243.831 194H226.786L207.716 139.455H223.696L235.025 178.482H235.593L246.885 139.455H262.901ZM284.732 195.03C281.251 195.03 278.15 194.426 275.428 193.219C272.705 191.988 270.551 190.177 268.964 187.786C267.402 185.371 266.621 182.364 266.621 178.766C266.621 175.735 267.177 173.19 268.29 171.131C269.402 169.071 270.918 167.414 272.835 166.159C274.753 164.904 276.931 163.957 279.369 163.318C281.831 162.679 284.412 162.229 287.111 161.969C290.283 161.637 292.84 161.33 294.781 161.045C296.723 160.738 298.131 160.288 299.007 159.696C299.883 159.104 300.321 158.228 300.321 157.068V156.855C300.321 154.606 299.611 152.866 298.19 151.635C296.794 150.404 294.805 149.788 292.224 149.788C289.502 149.788 287.336 150.392 285.726 151.599C284.116 152.783 283.051 154.275 282.53 156.074L268.538 154.938C269.249 151.623 270.645 148.759 272.729 146.344C274.812 143.905 277.499 142.035 280.79 140.733C284.104 139.407 287.939 138.744 292.295 138.744C295.326 138.744 298.226 139.099 300.996 139.81C303.789 140.52 306.263 141.621 308.418 143.112C310.596 144.604 312.312 146.521 313.567 148.865C314.821 151.185 315.449 153.967 315.449 157.21V194H301.102V186.436H300.676C299.8 188.141 298.628 189.644 297.161 190.946C295.693 192.224 293.929 193.231 291.869 193.964C289.81 194.675 287.43 195.03 284.732 195.03ZM289.064 184.589C291.289 184.589 293.254 184.152 294.959 183.276C296.663 182.376 298.001 181.169 298.972 179.653C299.942 178.138 300.428 176.422 300.428 174.504V168.716C299.954 169.024 299.303 169.308 298.474 169.568C297.67 169.805 296.758 170.03 295.74 170.243C294.722 170.432 293.704 170.61 292.686 170.776C291.668 170.918 290.745 171.048 289.916 171.166C288.141 171.427 286.59 171.841 285.264 172.409C283.938 172.977 282.909 173.747 282.175 174.717C281.441 175.664 281.074 176.848 281.074 178.268C281.074 180.328 281.82 181.902 283.311 182.991C284.826 184.057 286.744 184.589 289.064 184.589ZM356.198 139.455V150.818H323.35V139.455H356.198ZM330.808 126.386H345.935V177.239C345.935 178.635 346.148 179.724 346.575 180.506C347.001 181.263 347.593 181.796 348.35 182.104C349.131 182.411 350.031 182.565 351.049 182.565C351.759 182.565 352.469 182.506 353.18 182.388C353.89 182.246 354.434 182.139 354.813 182.068L357.192 193.325C356.435 193.562 355.37 193.834 353.996 194.142C352.623 194.473 350.954 194.675 348.989 194.746C345.344 194.888 342.147 194.402 339.401 193.29C336.679 192.177 334.56 190.449 333.045 188.105C331.53 185.761 330.784 182.802 330.808 179.227V126.386ZM366.053 194V139.455H381.18V194H366.053ZM373.652 132.423C371.403 132.423 369.473 131.678 367.864 130.186C366.277 128.671 365.484 126.86 365.484 124.753C365.484 122.67 366.277 120.882 367.864 119.391C369.473 117.875 371.403 117.118 373.652 117.118C375.901 117.118 377.819 117.875 379.405 119.391C381.015 120.882 381.82 122.67 381.82 124.753C381.82 126.86 381.015 128.671 379.405 130.186C377.819 131.678 375.901 132.423 373.652 132.423ZM417.944 195.065C412.427 195.065 407.657 193.893 403.632 191.55C399.632 189.182 396.542 185.892 394.364 181.678C392.186 177.44 391.097 172.527 391.097 166.94C391.097 161.306 392.186 156.382 394.364 152.168C396.542 147.93 399.632 144.639 403.632 142.295C407.657 139.928 412.427 138.744 417.944 138.744C423.46 138.744 428.218 139.928 432.219 142.295C436.244 144.639 439.345 147.93 441.523 152.168C443.701 156.382 444.79 161.306 444.79 166.94C444.79 172.527 443.701 177.44 441.523 181.678C439.345 185.892 436.244 189.182 432.219 191.55C428.218 193.893 423.46 195.065 417.944 195.065ZM418.015 183.347C420.524 183.347 422.619 182.636 424.3 181.216C425.981 179.772 427.248 177.807 428.1 175.321C428.976 172.835 429.414 170.006 429.414 166.834C429.414 163.661 428.976 160.832 428.1 158.347C427.248 155.861 425.981 153.896 424.3 152.452C422.619 151.008 420.524 150.286 418.015 150.286C415.481 150.286 413.351 151.008 411.623 152.452C409.918 153.896 408.628 155.861 407.752 158.347C406.9 160.832 406.473 163.661 406.473 166.834C406.473 170.006 406.9 172.835 407.752 175.321C408.628 177.807 409.918 179.772 411.623 181.216C413.351 182.636 415.481 183.347 418.015 183.347ZM469.755 162.466V194H454.627V139.455H469.044V149.078H469.684C470.891 145.906 472.915 143.396 475.756 141.55C478.597 139.679 482.042 138.744 486.09 138.744C489.878 138.744 493.18 139.573 495.998 141.23C498.815 142.887 501.005 145.255 502.567 148.332C504.13 151.386 504.911 155.032 504.911 159.27V194H489.783V161.969C489.807 158.631 488.954 156.027 487.226 154.156C485.498 152.262 483.119 151.315 480.088 151.315C478.052 151.315 476.253 151.753 474.691 152.629C473.152 153.505 471.944 154.784 471.069 156.464C470.216 158.122 469.778 160.122 469.755 162.466Z"/>
</mask>
<path d="M0.321023 73H-0.678977V74H0.321023V73ZM0.321023 0.272724V-0.727276H-0.678977V0.272724H0.321023ZM49.3267 0.272724H50.3267V-0.727276H49.3267V0.272724ZM49.3267 12.9503V13.9503H50.3267V12.9503H49.3267ZM15.6974 12.9503V11.9503H14.6974V12.9503H15.6974ZM15.6974 30.2798H14.6974V31.2798H15.6974V30.2798ZM46.8054 30.2798H47.8054V29.2798H46.8054V30.2798ZM46.8054 42.9574V43.9574H47.8054V42.9574H46.8054ZM15.6974 42.9574V41.9574H14.6974V42.9574H15.6974ZM15.6974 60.3224H14.6974V61.3224H15.6974V60.3224ZM49.4688 60.3224H50.4688V59.3224H49.4688V60.3224ZM49.4688 73V74H50.4688V73H49.4688ZM1.32102 73V0.272724H-0.678977V73H1.32102ZM0.321023 1.27272H49.3267V-0.727276H0.321023V1.27272ZM48.3267 0.272724V12.9503H50.3267V0.272724H48.3267ZM49.3267 11.9503H15.6974V13.9503H49.3267V11.9503ZM14.6974 12.9503V30.2798H16.6974V12.9503H14.6974ZM15.6974 31.2798H46.8054V29.2798H15.6974V31.2798ZM45.8054 30.2798V42.9574H47.8054V30.2798H45.8054ZM46.8054 41.9574H15.6974V43.9574H46.8054V41.9574ZM14.6974 42.9574V60.3224H16.6974V42.9574H14.6974ZM15.6974 61.3224H49.4688V59.3224H15.6974V61.3224ZM48.4688 60.3224V73H50.4688V60.3224H48.4688ZM49.4688 72H0.321023V74H49.4688V72ZM76.3952 41.4659L75.3952 41.4558V41.4659H76.3952ZM76.3952 73V74H77.3952V73H76.3952ZM61.2674 73H60.2674V74H61.2674V73ZM61.2674 18.4545V17.4545H60.2674V18.4545H61.2674ZM75.685 18.4545H76.685V17.4545H75.685V18.4545ZM75.685 28.0781H74.685V29.0781H75.685V28.0781ZM76.3242 28.0781V29.0781H77.0136L77.2588 28.4338L76.3242 28.0781ZM82.3967 20.5497L82.9417 21.3882L82.9465 21.385L82.3967 20.5497ZM102.638 20.2301L103.145 19.3682L102.638 20.2301ZM109.208 27.3324L108.316 27.7851L108.317 27.7879L109.208 27.3324ZM111.551 73V74H112.551V73H111.551ZM96.4237 73H95.4237V74H96.4237V73ZM96.4237 40.9688L95.4237 40.9617V40.9688H96.4237ZM93.8668 33.1562L93.1281 33.8303L93.1324 33.8349L93.8668 33.1562ZM81.3313 31.6293L80.8423 30.757L80.8366 30.7602L81.3313 31.6293ZM77.7092 35.4645L76.8223 35.0023L76.8199 35.0071L77.7092 35.4645ZM75.3952 41.4659V73H77.3952V41.4659H75.3952ZM76.3952 72H61.2674V74H76.3952V72ZM62.2674 73V18.4545H60.2674V73H62.2674ZM61.2674 19.4545H75.685V17.4545H61.2674V19.4545ZM74.685 18.4545V28.0781H76.685V18.4545H74.685ZM75.685 29.0781H76.3242V27.0781H75.685V29.0781ZM77.2588 28.4338C78.3909 25.4592 80.2788 23.119 82.9417 21.3882L81.8517 19.7113C78.8327 21.6736 76.6723 24.3523 75.3896 27.7224L77.2588 28.4338ZM82.9465 21.385C85.5953 19.6412 88.8398 18.7443 92.7305 18.7443V16.7443C88.5245 16.7443 84.8799 17.7177 81.8468 19.7145L82.9465 21.385ZM92.7305 18.7443C96.3688 18.7443 99.4906 19.5388 102.131 21.092L103.145 19.3682C100.151 17.6071 96.6679 16.7443 92.7305 16.7443V18.7443ZM102.131 21.092C104.774 22.6468 106.835 24.8678 108.316 27.7851L110.099 26.8797C108.456 23.6417 106.136 21.1278 103.145 19.3682L102.131 21.092ZM108.317 27.7879C109.793 30.6715 110.551 34.154 110.551 38.2699H112.551C112.551 33.9104 111.748 30.1012 110.098 26.8769L108.317 27.7879ZM110.551 38.2699V73H112.551V38.2699H110.551ZM111.551 72H96.4237V74H111.551V72ZM97.4237 73V40.9688H95.4237V73H97.4237ZM97.4236 40.9758C97.4485 37.465 96.5501 34.5866 94.6013 32.4776L93.1324 33.8349C94.64 35.4664 95.4461 37.7963 95.4237 40.9617L97.4236 40.9758ZM94.6055 32.4822C92.6532 30.3427 89.9846 29.3153 86.729 29.3153V31.3153C89.5341 31.3153 91.624 32.1819 93.1282 33.8303L94.6055 32.4822ZM86.729 29.3153C84.5456 29.3153 82.5736 29.7864 80.8423 30.757L81.8203 32.5015C83.214 31.7202 84.8406 31.3153 86.729 31.3153V29.3153ZM80.8366 30.7602C79.1188 31.738 77.7806 33.1635 76.8224 35.0023L78.596 35.9266C79.3896 34.4037 80.4662 33.2724 81.826 32.4983L80.8366 30.7602ZM76.8199 35.0071C75.8804 36.8338 75.4201 38.9955 75.3953 41.4558L77.3952 41.476C77.4177 39.2488 77.8333 37.4096 78.5984 35.9218L76.8199 35.0071ZM132.317 70.6918L131.774 71.532L131.781 71.5364L132.317 70.6918ZM124.362 61.2102L123.455 61.6306L123.458 61.6368L124.362 61.2102ZM124.469 30.2088L125.368 30.6457L125.369 30.6437L124.469 30.2088ZM132.494 20.8693L133.019 21.7204L133.021 21.7193L132.494 20.8693ZM151.173 19.3068L150.718 20.1972L150.73 20.2033L151.173 19.3068ZM156.145 23.142L155.37 23.774L155.375 23.7805L155.381 23.7869L156.145 23.142ZM159.057 27.6165L158.145 28.0281L158.411 28.6165H159.057V27.6165ZM159.518 27.6165V28.6165H160.518V27.6165H159.518ZM159.518 0.272724V-0.727276H158.518V0.272724H159.518ZM174.611 0.272724H175.611V-0.727276H174.611V0.272724ZM174.611 73V74H175.611V73H174.611ZM159.696 73H158.696V74H159.696V73ZM159.696 64.2642H160.696V63.2642H159.696V64.2642ZM159.057 64.2642V63.2642H158.421L158.151 63.8398L159.057 64.2642ZM156.038 68.7741L155.285 68.1165L155.284 68.1174L156.038 68.7741ZM151.031 72.4318L150.605 71.5272L150.601 71.5292L151.031 72.4318ZM154.547 59.8608L155.166 60.646L155.168 60.6448L154.547 59.8608ZM158.453 54.2145L157.519 53.8573L157.516 53.8654L158.453 54.2145ZM158.489 37.2756L159.425 36.9234L158.489 37.2756ZM142.082 31.8068L141.462 31.0228L142.082 31.8068ZM138.212 54.1435L137.27 54.4816L137.275 54.4926L138.212 54.1435ZM142.082 59.8253L141.45 60.5997L141.456 60.6046L141.462 60.6093L142.082 59.8253ZM143.574 72.8878C139.612 72.8878 136.047 71.872 132.852 69.8471L131.781 71.5364C135.31 73.7728 139.249 74.8878 143.574 74.8878V72.8878ZM132.859 69.8516C129.702 67.8138 127.165 64.8088 125.267 60.7837L123.458 61.6368C125.489 65.945 128.256 69.261 131.775 71.532L132.859 69.8516ZM125.27 60.7899C123.405 56.7661 122.45 51.7814 122.45 45.7983H120.45C120.45 51.9837 121.436 57.2737 123.455 61.6306L125.27 60.7899ZM122.45 45.7983C122.45 39.6484 123.441 34.6129 125.368 30.6457L123.569 29.7719C121.472 34.0906 120.45 39.4482 120.45 45.7983H122.45ZM125.369 30.6437C127.314 26.6174 129.871 23.6631 133.019 21.7204L131.969 20.0183C128.442 22.1949 125.648 25.4669 123.568 29.7739L125.369 30.6437ZM133.021 21.7193C136.223 19.7352 139.721 18.7443 143.538 18.7443V16.7443C139.354 16.7443 135.489 17.8367 131.968 20.0193L133.021 21.7193ZM143.538 18.7443C146.485 18.7443 148.862 19.2476 150.718 20.1971L151.629 18.4166C149.413 17.2827 146.7 16.7443 143.538 16.7443V18.7443ZM150.73 20.2033C152.682 21.1678 154.219 22.3622 155.37 23.774L156.92 22.5101C155.562 20.8442 153.784 19.4818 151.616 18.4103L150.73 20.2033ZM155.381 23.7869C156.613 25.2471 157.528 26.6612 158.145 28.0281L159.968 27.2049C159.26 25.6361 158.234 24.0673 156.909 22.4972L155.381 23.7869ZM159.057 28.6165H159.518V26.6165H159.057V28.6165ZM160.518 27.6165V0.272724H158.518V27.6165H160.518ZM159.518 1.27272H174.611V-0.727276H159.518V1.27272ZM173.611 0.272724V73H175.611V0.272724H173.611ZM174.611 72H159.696V74H174.611V72ZM160.696 73V64.2642H158.696V73H160.696ZM159.696 63.2642H159.057V65.2642H159.696V63.2642ZM158.151 63.8398C157.487 65.2567 156.537 66.6828 155.285 68.1165L156.792 69.4318C158.144 67.8825 159.206 66.302 159.962 64.6886L158.151 63.8398ZM155.284 68.1174C154.111 69.4646 152.56 70.6057 150.605 71.5272L151.458 73.3364C153.621 72.3167 155.409 71.0193 156.792 69.4309L155.284 68.1174ZM150.601 71.5292C148.733 72.4194 146.404 72.8878 143.574 72.8878V74.8878C146.615 74.8878 149.257 74.3855 151.462 73.3345L150.601 71.5292ZM148.368 62.8494C150.998 62.8494 153.285 62.1299 155.166 60.646L153.928 59.0756C152.447 60.2432 150.614 60.8494 148.368 60.8494V62.8494ZM155.168 60.6448C157.04 59.1626 158.439 57.1175 159.39 54.5636L157.516 53.8654C156.668 56.141 155.463 57.8602 153.926 59.0768L155.168 60.6448ZM159.387 54.5716C160.364 52.0179 160.838 49.0629 160.838 45.7273H158.838C158.838 48.8784 158.389 51.5815 157.519 53.8574L159.387 54.5716ZM160.838 45.7273C160.838 42.3946 160.376 39.4529 159.425 36.9234L157.553 37.6277C158.4 39.8805 158.838 42.5732 158.838 45.7273H160.838ZM159.425 36.9234C158.472 34.3908 157.069 32.3771 155.189 30.9411L153.975 32.5305C155.505 33.6986 156.706 35.3782 157.553 37.6277L159.425 36.9234ZM155.189 30.9411C153.287 29.4879 150.994 28.7827 148.368 28.7827V30.7827C150.618 30.7827 152.469 31.3795 153.975 32.5305L155.189 30.9411ZM148.368 28.7827C145.691 28.7827 143.368 29.5138 141.462 31.0228L142.703 32.5909C144.206 31.401 146.073 30.7827 148.368 30.7827V28.7827ZM141.462 31.0228C139.589 32.5051 138.201 34.5394 137.273 37.0736L139.151 37.7616C139.974 35.5136 141.166 33.8074 142.703 32.5909L141.462 31.0228ZM137.273 37.0736C136.348 39.5975 135.898 42.488 135.898 45.7273H137.898C137.898 42.6692 138.323 40.0199 139.151 37.7616L137.273 37.0736ZM135.898 45.7273C135.898 48.9899 136.348 51.9134 137.271 54.4815L139.153 53.8054C138.323 51.4967 137.898 48.8093 137.898 45.7273H135.898ZM137.275 54.4926C138.224 57.0423 139.608 59.095 141.45 60.5997L142.715 59.0508C141.195 57.8094 139.998 56.0742 139.149 53.7944L137.275 54.4926ZM141.462 60.6093C143.368 62.1183 145.691 62.8494 148.368 62.8494V60.8494C146.073 60.8494 144.206 60.2311 142.703 59.0412L141.462 60.6093ZM202.176 0.272724H203.176V-0.727276H202.176V0.272724ZM202.176 73V74H203.176V73H202.176ZM187.049 73H186.049V74H187.049V73ZM187.049 0.272724V-0.727276H186.049V0.272724H187.049ZM201.176 0.272724V73H203.176V0.272724H201.176ZM202.176 72H187.049V74H202.176V72ZM188.049 73V0.272724H186.049V73H188.049ZM187.049 1.27272H202.176V-0.727276H187.049V1.27272ZM224.664 70.6562L224.168 71.5248L224.175 71.5282L224.664 70.6562ZM215.36 60.9261L214.472 61.3853L214.473 61.3873L215.36 60.9261ZM215.36 31.2031L214.471 30.746L215.36 31.2031ZM224.558 21.2954L224.046 20.4362L224.044 20.4375L224.558 21.2954ZM248.599 19.4844L248.248 20.421L248.257 20.4242L248.599 19.4844ZM256.766 24.6335L256.063 25.3443L256.066 25.3478L256.766 24.6335ZM262.235 33.2983L261.298 33.6487L261.299 33.6508L262.235 33.2983ZM264.188 49.598V50.598H265.188V49.598H264.188ZM218.13 49.598H217.13V50.598H218.13V49.598ZM218.13 40.223V39.223H217.13V40.223H218.13ZM249.948 40.223V41.223H250.948V40.223H249.948ZM248.528 34.4347L247.656 34.9255L248.528 34.4347ZM244.586 30.4929L244.081 31.3558L244.088 31.36L244.095 31.3641L244.586 30.4929ZM232.69 30.6349L233.201 31.4945L233.204 31.4924L232.69 30.6349ZM228.57 34.8608L229.44 35.3544L229.443 35.3494L228.57 34.8608ZM227.043 40.7202L226.043 40.7092V40.7202H227.043ZM228.535 56.6293L227.642 57.0808L227.647 57.0893L228.535 56.6293ZM244.018 62.0625L243.697 61.1154L244.018 62.0625ZM247.604 59.9318L246.915 59.2077L247.604 59.9318ZM249.877 56.4517L249.943 55.4539L249.205 55.4052L248.942 56.0971L249.877 56.4517ZM263.869 57.375L264.847 57.5817L265.085 56.4531L263.934 56.3772L263.869 57.375ZM259.501 66.1818L258.749 65.5223L258.749 65.5228L259.501 66.1818ZM251.049 72.0057L251.42 72.9342L251.424 72.9328L251.049 72.0057ZM239.153 73.0653C233.678 73.0653 229.024 71.9572 225.154 69.7843L224.175 71.5282C228.401 73.9008 233.406 75.0653 239.153 75.0653V73.0653ZM225.16 69.7877C221.305 67.5885 218.339 64.4881 216.247 60.4649L214.473 61.3873C216.738 65.7448 219.973 69.1312 224.168 71.5248L225.16 69.7877ZM216.248 60.467C214.158 56.422 213.093 51.6025 213.093 45.9759H211.093C211.093 51.8549 212.206 57.0022 214.472 61.3853L216.248 60.467ZM213.093 45.9759C213.093 40.4959 214.156 35.7334 216.249 31.6602L214.471 30.746C212.208 35.1482 211.093 40.2342 211.093 45.9759H213.093ZM216.249 31.6602C218.345 27.5827 221.283 24.4215 225.071 22.1534L224.044 20.4375C219.924 22.9042 216.731 26.3482 214.471 30.746L216.249 31.6602ZM225.069 22.1547C228.869 19.893 233.35 18.7443 238.549 18.7443V16.7443C233.047 16.7443 228.201 17.9631 224.046 20.4362L225.069 22.1547ZM238.549 18.7443C242.038 18.7443 245.268 19.3064 248.248 20.421L248.949 18.5478C245.726 17.3423 242.257 16.7443 238.549 16.7443V18.7443ZM248.257 20.4242C251.249 21.5121 253.847 23.1514 256.063 25.3442L257.47 23.9228C255.045 21.5229 252.199 19.7293 248.94 18.5446L248.257 20.4242ZM256.066 25.3478C258.293 27.5289 260.041 30.2876 261.298 33.6487L263.172 32.9479C261.825 29.3488 259.928 26.3309 257.466 23.9192L256.066 25.3478ZM261.299 33.6508C262.55 36.9698 263.188 40.8938 263.188 45.4432H265.188C265.188 40.7122 264.525 36.5396 263.171 32.9458L261.299 33.6508ZM263.188 45.4432V49.598H265.188V45.4432H263.188ZM264.188 48.598H218.13V50.598H264.188V48.598ZM219.13 49.598V40.223H217.13V49.598H219.13ZM218.13 41.223H249.948V39.223H218.13V41.223ZM250.948 40.223C250.948 37.8956 250.441 35.793 249.399 33.9438L247.656 34.9255C248.509 36.4381 248.948 38.1944 248.948 40.223H250.948ZM249.399 33.9438C248.362 32.1038 246.917 30.6583 245.077 29.6217L244.095 31.3641C245.617 32.2214 246.799 33.4038 247.656 34.9255L249.399 33.9438ZM245.091 29.63C243.26 28.5571 241.151 28.0369 238.798 28.0369V30.0369C240.848 30.0369 242.598 30.4874 244.081 31.3558L245.091 29.63ZM238.798 28.0369C236.34 28.0369 234.123 28.6089 232.175 29.7774L233.204 31.4924C234.808 30.5303 236.662 30.0369 238.798 30.0369V28.0369ZM232.179 29.7754C230.276 30.9067 228.778 32.4431 227.698 34.3722L229.443 35.3494C230.351 33.7273 231.6 32.4465 233.201 31.4945L232.179 29.7754ZM227.701 34.3672C226.617 36.2765 226.069 38.3977 226.043 40.7092L228.043 40.7312C228.065 38.734 228.535 36.9488 229.44 35.3544L227.701 34.3672ZM226.043 40.7202V49.6335H228.043V40.7202H226.043ZM226.043 49.6335C226.043 52.4544 226.563 54.9478 227.643 57.0808L229.427 56.1777C228.518 54.3808 228.043 52.2103 228.043 49.6335H226.043ZM227.647 57.0893C228.749 59.2171 230.313 60.8763 232.332 62.0409L233.331 60.3085C231.657 59.3425 230.356 57.9713 229.423 56.1693L227.647 57.0893ZM232.332 62.0409C234.357 63.2091 236.726 63.7727 239.401 63.7727V61.7727C237.01 61.7727 235 61.271 233.331 60.3085L232.332 62.0409ZM239.401 63.7727C241.176 63.7727 242.825 63.5226 244.339 63.0096L243.697 61.1154C242.417 61.5493 240.988 61.7727 239.401 61.7727V63.7727ZM244.339 63.0096C245.863 62.493 247.187 61.7104 248.294 60.656L246.915 59.2077C246.033 60.0472 244.966 60.6851 243.697 61.1154L244.339 63.0096ZM248.294 60.656C249.404 59.5987 250.242 58.3095 250.812 56.8064L248.942 56.0971C248.471 57.3401 247.793 58.371 246.915 59.2077L248.294 60.656ZM249.811 57.4495L263.803 58.3728L263.934 56.3772L249.943 55.4539L249.811 57.4495ZM262.89 57.1683C262.214 60.3673 260.834 63.1457 258.749 65.5223L260.252 66.8413C262.571 64.199 264.102 61.1062 264.847 57.5817L262.89 57.1683ZM258.749 65.5228C256.686 67.8766 254.004 69.7328 250.674 71.0785L251.424 72.9328C255.006 71.485 257.959 69.4586 260.253 66.8408L258.749 65.5228ZM250.678 71.0772C247.386 72.394 243.55 73.0653 239.153 73.0653V75.0653C243.751 75.0653 247.847 74.3635 251.42 72.9342L250.678 71.0772ZM319.444 34.0085L319.505 35.0066L320.576 34.9408L320.435 33.8776L319.444 34.0085ZM305.594 34.8608L304.614 35.0569L304.785 35.9125L305.656 35.8589L305.594 34.8608ZM304.067 31.6648L303.288 32.2918L303.296 32.3012L304.067 31.6648ZM300.978 29.3565L300.551 30.261L300.562 30.2658L300.572 30.2703L300.978 29.3565ZM290.538 29.9602L291.054 30.8167L291.063 30.811L290.538 29.9602ZM289.685 37.169L289.032 37.9259L289.685 37.169ZM295.048 39.3352L294.837 40.313L294.85 40.3155L295.048 39.3352ZM304.92 41.3239L305.121 40.3443L305.117 40.3436L304.92 41.3239ZM316.781 46.5795L316.101 47.3128H316.101L316.781 46.5795ZM317.526 65.5071L316.738 64.8917L316.735 64.896L317.526 65.5071ZM308.933 71.8281L309.313 72.7528L309.316 72.7516L308.933 71.8281ZM279.138 69.5554L278.559 70.3704L278.564 70.374L279.138 69.5554ZM271.646 57.1974L271.593 56.1988L270.503 56.2561L270.655 57.337L271.646 57.1974ZM286.525 56.4162L287.505 56.216L287.332 55.3724L286.472 55.4176L286.525 56.4162ZM289.792 61.4588L289.235 62.2891L289.242 62.2944L289.792 61.4588ZM302.825 61.6364L303.359 62.4816L303.362 62.4795L302.825 61.6364ZM305.31 57.6236L306.31 57.6381L306.31 57.6222L306.31 57.6063L305.31 57.6236ZM303.57 54.25L302.95 55.0341L302.96 55.042L303.57 54.25ZM298.315 52.1903L298.511 51.2098L298.51 51.2096L298.315 52.1903ZM288.869 50.3082L288.672 51.2888L288.673 51.289L288.869 50.3082ZM276.972 44.7685L276.259 45.4691L276.262 45.4724L276.972 44.7685ZM275.942 25.6633L275.145 25.0598L275.142 25.0645L275.942 25.6633ZM284.004 19.804L283.637 18.8738L283.634 18.8746L284.004 19.804ZM312.484 22.1122L311.891 22.9174L311.893 22.9191L312.484 22.1122ZM319.382 33.0104L305.533 33.8627L305.656 35.8589L319.505 35.0066L319.382 33.0104ZM306.575 34.6647C306.305 33.3164 305.723 32.1004 304.839 31.0284L303.296 32.3012C303.974 33.1231 304.41 34.0378 304.614 35.0569L306.575 34.6647ZM304.846 31.0378C303.954 29.9287 302.79 29.0675 301.384 28.4427L300.572 30.2703C301.723 30.782 302.619 31.4596 303.288 32.2918L304.846 31.0378ZM301.405 28.4521C299.986 27.783 298.33 27.4688 296.468 27.4688V29.4688C298.11 29.4688 299.46 29.7463 300.551 30.261L301.405 28.4521ZM296.468 27.4688C293.983 27.4688 291.814 27.9967 290.012 29.1094L291.063 30.811C292.481 29.9351 294.266 29.4688 296.468 29.4688V27.4688ZM290.021 29.1038C288.165 30.2231 287.123 31.824 287.123 33.8665H289.123C289.123 32.6419 289.691 31.6386 291.054 30.8166L290.021 29.1038ZM287.123 33.8665C287.123 35.4775 287.784 36.8486 289.032 37.9259L290.339 36.4122C289.503 35.6902 289.123 34.8596 289.123 33.8665H287.123ZM289.032 37.9259C290.269 38.9946 292.261 39.7592 294.837 40.3129L295.258 38.3576C292.768 37.8223 291.185 37.1427 290.339 36.4122L289.032 37.9259ZM294.85 40.3155L304.722 42.3042L305.117 40.3436L295.245 38.3549L294.85 40.3155ZM304.719 42.3034C309.929 43.3735 313.683 45.0713 316.101 47.3128L317.46 45.8463C314.669 43.2583 310.516 41.4523 305.121 40.3443L304.719 42.3034ZM316.101 47.3128C318.478 49.5171 319.687 52.412 319.687 56.0966H321.687C321.687 51.9213 320.292 48.4716 317.46 45.8463L316.101 47.3128ZM319.687 56.0966C319.687 59.459 318.701 62.3768 316.738 64.8917L318.315 66.1225C320.565 63.2397 321.687 59.8838 321.687 56.0966H319.687ZM316.735 64.896C314.774 67.4366 312.059 69.4457 308.549 70.9047L309.316 72.7516C313.097 71.1802 316.112 68.9753 318.318 66.1182L316.735 64.896ZM308.552 70.9035C305.073 72.336 301.028 73.0653 296.397 73.0653V75.0653C301.236 75.0653 305.548 74.3032 309.313 72.7528L308.552 70.9035ZM296.397 73.0653C289.306 73.0653 283.777 71.5882 279.713 68.7368L278.564 70.374C283.07 73.5359 289.047 75.0653 296.397 75.0653V73.0653ZM279.718 68.7404C275.682 65.8704 273.332 61.9961 272.636 57.0579L270.655 57.337C271.427 62.8155 274.072 67.1798 278.559 70.3704L279.718 68.7404ZM271.698 58.1961L286.577 57.4148L286.472 55.4176L271.593 56.1988L271.698 58.1961ZM285.545 56.6164C286.043 59.0529 287.27 60.9703 289.235 62.2891L290.349 60.6285C288.858 59.6272 287.906 58.1829 287.505 56.216L285.545 56.6164ZM289.242 62.2944C291.177 63.5663 293.597 64.1634 296.433 64.1634V62.1634C293.87 62.1634 291.863 61.6241 290.341 60.6233L289.242 62.2944ZM296.433 64.1634C299.202 64.1634 301.538 63.633 303.359 62.4816L302.29 60.7912C300.891 61.6757 298.966 62.1634 296.433 62.1634V64.1634ZM303.362 62.4795C305.218 61.2958 306.281 59.6744 306.31 57.6381L304.31 57.6091C304.293 58.8398 303.698 59.8936 302.287 60.7932L303.362 62.4795ZM306.31 57.6063C306.281 55.9138 305.546 54.5099 304.181 53.458L302.96 55.042C303.868 55.7419 304.292 56.5871 304.311 57.6408L306.31 57.6063ZM304.191 53.466C302.874 52.4235 300.943 51.6961 298.511 51.2098L298.119 53.1709C300.422 53.6315 301.994 54.2773 302.95 55.034L304.191 53.466ZM298.51 51.2096L289.064 49.3275L288.673 51.289L298.119 53.1711L298.51 51.2096ZM289.065 49.3277C283.847 48.284 280.095 46.4993 277.683 44.0646L276.262 45.4724C279.058 48.2934 283.237 50.2018 288.672 51.2888L289.065 49.3277ZM277.686 44.0678C275.309 41.6475 274.102 38.5589 274.102 34.7188H272.102C272.102 39.0225 273.475 42.6337 276.259 45.4691L277.686 44.0678ZM274.102 34.7188C274.102 31.4063 274.993 28.6038 276.743 26.2622L275.142 25.0645C273.104 27.7892 272.102 31.0236 272.102 34.7188H274.102ZM276.74 26.2669C278.53 23.9027 281.057 22.0506 284.373 20.7333L283.634 18.8746C280.037 20.3035 277.191 22.3577 275.145 25.0598L276.74 26.2669ZM284.371 20.7342C287.709 19.417 291.651 18.7443 296.219 18.7443V16.7443C291.46 16.7443 287.258 17.4447 283.637 18.8738L284.371 20.7342ZM296.219 18.7443C302.979 18.7443 308.166 20.174 311.891 22.9174L313.077 21.307C308.894 18.2266 303.238 16.7443 296.219 16.7443V18.7443ZM311.893 22.9191C315.643 25.665 317.824 29.3828 318.453 34.1395L320.435 33.8776C319.738 28.5963 317.278 24.3833 313.074 21.3054L311.893 22.9191ZM375.596 34.0085L375.658 35.0066L376.728 34.9408L376.588 33.8776L375.596 34.0085ZM361.747 34.8608L360.766 35.0569L360.937 35.9125L361.808 35.8589L361.747 34.8608ZM360.22 31.6648L359.441 32.2918L359.448 32.3012L360.22 31.6648ZM357.13 29.3565L356.704 30.261L356.714 30.2658L356.724 30.2703L357.13 29.3565ZM346.69 29.9602L347.206 30.8167L347.215 30.811L346.69 29.9602ZM345.838 37.169L345.184 37.9259L345.838 37.169ZM351.2 39.3352L350.99 40.313L351.002 40.3155L351.2 39.3352ZM361.072 41.3239L361.273 40.3443L361.27 40.3436L361.072 41.3239ZM372.933 46.5795L372.253 47.3128H372.253L372.933 46.5795ZM373.679 65.5071L372.89 64.8917L372.887 64.896L373.679 65.5071ZM365.085 71.8281L365.466 72.7528L365.469 72.7516L365.085 71.8281ZM335.291 69.5554L334.711 70.3704L334.716 70.374L335.291 69.5554ZM327.798 57.1974L327.746 56.1988L326.655 56.2561L326.808 57.337L327.798 57.1974ZM342.677 56.4162L343.657 56.216L343.485 55.3724L342.625 55.4176L342.677 56.4162ZM345.944 61.4588L345.387 62.2891L345.395 62.2944L345.944 61.4588ZM358.977 61.6364L359.511 62.4816L359.515 62.4795L358.977 61.6364ZM361.463 57.6236L362.463 57.6381L362.463 57.6222L362.463 57.6063L361.463 57.6236ZM359.723 54.25L359.102 55.0341L359.112 55.042L359.723 54.25ZM354.467 52.1903L354.663 51.2098L354.662 51.2096L354.467 52.1903ZM345.021 50.3082L344.825 51.2888L344.826 51.289L345.021 50.3082ZM333.125 44.7685L332.411 45.4691L332.414 45.4724L333.125 44.7685ZM332.095 25.6633L331.297 25.0598L331.294 25.0645L332.095 25.6633ZM340.156 19.804L339.789 18.8738L339.787 18.8746L340.156 19.804ZM368.636 22.1122L368.043 22.9174L368.045 22.9191L368.636 22.1122ZM375.535 33.0104L361.685 33.8627L361.808 35.8589L375.658 35.0066L375.535 33.0104ZM362.727 34.6647C362.458 33.3164 361.876 32.1004 360.991 31.0284L359.448 32.3012C360.127 33.1231 360.562 34.0378 360.766 35.0569L362.727 34.6647ZM360.999 31.0378C360.106 29.9287 358.942 29.0675 357.536 28.4427L356.724 30.2703C357.875 30.782 358.771 31.4596 359.441 32.2918L360.999 31.0378ZM357.557 28.4521C356.139 27.783 354.482 27.4688 352.62 27.4688V29.4688C354.262 29.4688 355.613 29.7463 356.704 30.261L357.557 28.4521ZM352.62 27.4688C350.135 27.4688 347.966 27.9967 346.164 29.1094L347.215 30.811C348.634 29.9351 350.418 29.4688 352.62 29.4688V27.4688ZM346.174 29.1038C344.317 30.2231 343.275 31.824 343.275 33.8665H345.275C345.275 32.6419 345.843 31.6386 347.206 30.8166L346.174 29.1038ZM343.275 33.8665C343.275 35.4775 343.937 36.8486 345.184 37.9259L346.491 36.4122C345.655 35.6902 345.275 34.8596 345.275 33.8665H343.275ZM345.184 37.9259C346.422 38.9946 348.414 39.7592 350.99 40.3129L351.41 38.3576C348.92 37.8223 347.337 37.1427 346.491 36.4122L345.184 37.9259ZM351.002 40.3155L360.875 42.3042L361.27 40.3436L351.397 38.3549L351.002 40.3155ZM360.871 42.3034C366.082 43.3735 369.836 45.0713 372.253 47.3128L373.613 45.8463C370.822 43.2583 366.669 41.4523 361.273 40.3443L360.871 42.3034ZM372.253 47.3128C374.63 49.5171 375.839 52.412 375.839 56.0966H377.839C377.839 51.9213 376.444 48.4716 373.613 45.8463L372.253 47.3128ZM375.839 56.0966C375.839 59.459 374.854 62.3768 372.89 64.8917L374.467 66.1225C376.717 63.2397 377.839 59.8838 377.839 56.0966H375.839ZM372.887 64.896C370.926 67.4366 368.212 69.4457 364.701 70.9047L365.469 72.7516C369.25 71.1802 372.265 68.9753 374.47 66.1182L372.887 64.896ZM364.704 70.9035C361.225 72.336 357.18 73.0653 352.549 73.0653V75.0653C357.388 75.0653 361.7 74.3032 365.466 72.7528L364.704 70.9035ZM352.549 73.0653C345.458 73.0653 339.929 71.5882 335.865 68.7368L334.716 70.374C339.223 73.5359 345.199 75.0653 352.549 75.0653V73.0653ZM335.87 68.7404C331.834 65.8704 329.484 61.9961 328.788 57.0579L326.808 57.337C327.58 62.8155 330.225 67.1798 334.711 70.3704L335.87 68.7404ZM327.85 58.1961L342.73 57.4148L342.625 55.4176L327.746 56.1988L327.85 58.1961ZM341.697 56.6164C342.195 59.0529 343.422 60.9703 345.387 62.2891L346.502 60.6285C345.01 59.6272 344.059 58.1829 343.657 56.216L341.697 56.6164ZM345.395 62.2944C347.329 63.5663 349.749 64.1634 352.585 64.1634V62.1634C350.023 62.1634 348.016 61.6241 346.494 60.6233L345.395 62.2944ZM352.585 64.1634C355.354 64.1634 357.691 63.633 359.511 62.4816L358.442 60.7912C357.044 61.6757 355.118 62.1634 352.585 62.1634V64.1634ZM359.515 62.4795C361.371 61.2958 362.433 59.6744 362.463 57.6381L360.463 57.6091C360.445 58.8398 359.85 59.8936 358.439 60.7932L359.515 62.4795ZM362.463 57.6063C362.433 55.9138 361.698 54.5099 360.333 53.458L359.112 55.042C360.02 55.7419 360.445 56.5871 360.463 57.6408L362.463 57.6063ZM360.343 53.466C359.027 52.4235 357.095 51.6961 354.663 51.2098L354.271 53.1709C356.574 53.6315 358.146 54.2773 359.102 55.034L360.343 53.466ZM354.662 51.2096L345.216 49.3275L344.826 51.289L354.272 53.1711L354.662 51.2096ZM345.217 49.3277C339.999 48.284 336.248 46.4993 333.835 44.0646L332.414 45.4724C335.21 48.2934 339.39 50.2018 344.825 51.2888L345.217 49.3277ZM333.838 44.0678C331.461 41.6475 330.254 38.5589 330.254 34.7188H328.254C328.254 39.0225 329.627 42.6337 332.411 45.4691L333.838 44.0678ZM330.254 34.7188C330.254 31.4063 331.145 28.6038 332.896 26.2622L331.294 25.0645C329.257 27.7892 328.254 31.0236 328.254 34.7188H330.254ZM332.892 26.2669C334.682 23.9027 337.209 22.0506 340.525 20.7333L339.787 18.8746C336.19 20.3035 333.343 22.3577 331.298 25.0598L332.892 26.2669ZM340.523 20.7342C343.861 19.417 347.804 18.7443 352.372 18.7443V16.7443C347.612 16.7443 343.411 17.4447 339.789 18.8738L340.523 20.7342ZM352.372 18.7443C359.131 18.7443 364.318 20.174 368.043 22.9174L369.229 21.307C365.047 18.2266 359.391 16.7443 352.372 16.7443V18.7443ZM368.045 22.9191C371.796 25.665 373.977 29.3828 374.605 34.1395L376.588 33.8776C375.89 28.5963 373.431 24.3833 369.227 21.3054L368.045 22.9191ZM15.6974 121.273H16.6974V120.273H15.6974V121.273ZM15.6974 194V195H16.6974V194H15.6974ZM0.321023 194H-0.678977V195H0.321023V194ZM0.321023 121.273V120.273H-0.678977V121.273H0.321023ZM14.6974 121.273V194H16.6974V121.273H14.6974ZM15.6974 193H0.321023V195H15.6974V193ZM1.32102 194V121.273H-0.678977V194H1.32102ZM0.321023 122.273H15.6974V120.273H0.321023V122.273ZM43.1921 162.466L42.1921 162.456V162.466H43.1921ZM43.1921 194V195H44.1921V194H43.1921ZM28.0643 194H27.0643V195H28.0643V194ZM28.0643 139.455V138.455H27.0643V139.455H28.0643ZM42.4819 139.455H43.4819V138.455H42.4819V139.455ZM42.4819 149.078H41.4819V150.078H42.4819V149.078ZM43.1211 149.078V150.078H43.8105L44.0557 149.434L43.1211 149.078ZM49.1935 141.55L49.7385 142.388L49.7434 142.385L49.1935 141.55ZM69.435 141.23L69.942 140.368L69.435 141.23ZM76.0046 148.332L75.1129 148.785L75.1144 148.788L76.0046 148.332ZM78.3484 194V195H79.3484V194H78.3484ZM63.2205 194H62.2205V195H63.2205V194ZM63.2205 161.969L62.2205 161.962V161.969H63.2205ZM60.6637 154.156L59.925 154.83L59.9293 154.835L60.6637 154.156ZM48.1282 152.629L47.6392 151.757L47.6335 151.76L48.1282 152.629ZM44.506 156.464L43.6192 156.002L43.6167 156.007L44.506 156.464ZM42.1921 162.466V194H44.1921V162.466H42.1921ZM43.1921 193H28.0643V195H43.1921V193ZM29.0643 194V139.455H27.0643V194H29.0643ZM28.0643 140.455H42.4819V138.455H28.0643V140.455ZM41.4819 139.455V149.078H43.4819V139.455H41.4819ZM42.4819 150.078H43.1211V148.078H42.4819V150.078ZM44.0557 149.434C45.1878 146.459 47.0757 144.119 49.7385 142.388L48.6485 140.711C45.6295 142.674 43.4692 145.352 42.1865 148.722L44.0557 149.434ZM49.7434 142.385C52.3921 140.641 55.6367 139.744 59.5273 139.744V137.744C55.3214 137.744 51.6768 138.718 48.6437 140.714L49.7434 142.385ZM59.5273 139.744C63.1656 139.744 66.2874 140.539 68.928 142.092L69.942 140.368C66.9481 138.607 63.4648 137.744 59.5273 137.744V139.744ZM68.928 142.092C71.5711 143.647 73.6319 145.868 75.113 148.785L76.8963 147.88C75.2524 144.642 72.9334 142.128 69.942 140.368L68.928 142.092ZM75.1144 148.788C76.5897 151.672 77.3484 155.154 77.3484 159.27H79.3484C79.3484 154.91 78.5445 151.101 76.8949 147.877L75.1144 148.788ZM77.3484 159.27V194H79.3484V159.27H77.3484ZM78.3484 193H63.2205V195H78.3484V193ZM64.2205 194V161.969H62.2205V194H64.2205ZM64.2205 161.976C64.2454 158.465 63.347 155.587 61.3982 153.478L59.9293 154.835C61.4369 156.466 62.243 158.796 62.2206 161.962L64.2205 161.976ZM61.4024 153.482C59.4501 151.343 56.7815 150.315 53.5259 150.315V152.315C56.3309 152.315 58.4209 153.182 59.925 154.83L61.4024 153.482ZM53.5259 150.315C51.3424 150.315 49.3705 150.786 47.6392 151.757L48.6172 153.502C50.0109 152.72 51.6374 152.315 53.5259 152.315V150.315ZM47.6335 151.76C45.9157 152.738 44.5775 154.164 43.6192 156.002L45.3928 156.927C46.1865 155.404 47.2631 154.272 48.6229 153.498L47.6335 151.76ZM43.6167 156.007C42.6773 157.834 42.217 159.996 42.1922 162.456L44.1921 162.476C44.2146 160.249 44.6302 158.41 45.3953 156.922L43.6167 156.007ZM105.399 162.466L104.399 162.456V162.466H105.399ZM105.399 194V195H106.399V194H105.399ZM90.2713 194H89.2713V195H90.2713V194ZM90.2713 139.455V138.455H89.2713V139.455H90.2713ZM104.689 139.455H105.689V138.455H104.689V139.455ZM104.689 149.078H103.689V150.078H104.689V149.078ZM105.328 149.078V150.078H106.018L106.263 149.434L105.328 149.078ZM111.401 141.55L111.946 142.388L111.95 142.385L111.401 141.55ZM131.642 141.23L132.149 140.368L131.642 141.23ZM138.212 148.332L137.32 148.785L137.321 148.788L138.212 148.332ZM140.555 194V195H141.555V194H140.555ZM125.428 194H124.428V195H125.428V194ZM125.428 161.969L124.428 161.962V161.969H125.428ZM122.871 154.156L122.132 154.83L122.136 154.835L122.871 154.156ZM110.335 152.629L109.846 151.757L109.841 151.76L110.335 152.629ZM106.713 156.464L105.826 156.002L105.824 156.007L106.713 156.464ZM104.399 162.466V194H106.399V162.466H104.399ZM105.399 193H90.2713V195H105.399V193ZM91.2713 194V139.455H89.2713V194H91.2713ZM90.2713 140.455H104.689V138.455H90.2713V140.455ZM103.689 139.455V149.078H105.689V139.455H103.689ZM104.689 150.078H105.328V148.078H104.689V150.078ZM106.263 149.434C107.395 146.459 109.283 144.119 111.946 142.388L110.856 140.711C107.837 142.674 105.676 145.352 104.394 148.722L106.263 149.434ZM111.95 142.385C114.599 140.641 117.844 139.744 121.734 139.744V137.744C117.528 137.744 113.884 138.718 110.851 140.714L111.95 142.385ZM121.734 139.744C125.373 139.744 128.494 140.539 131.135 142.092L132.149 140.368C129.155 138.607 125.672 137.744 121.734 137.744V139.744ZM131.135 142.092C133.778 143.647 135.839 145.868 137.32 148.785L139.103 147.88C137.459 144.642 135.14 142.128 132.149 140.368L131.135 142.092ZM137.321 148.788C138.797 151.672 139.555 155.154 139.555 159.27H141.555C141.555 154.91 140.752 151.101 139.102 147.877L137.321 148.788ZM139.555 159.27V194H141.555V159.27H139.555ZM140.555 193H125.428V195H140.555V193ZM126.428 194V161.969H124.428V194H126.428ZM126.428 161.976C126.452 158.465 125.554 155.587 123.605 153.478L122.136 154.835C123.644 156.466 124.45 158.796 124.428 161.962L126.428 161.976ZM123.609 153.482C121.657 151.343 118.989 150.315 115.733 150.315V152.315C118.538 152.315 120.628 153.182 122.132 154.83L123.609 153.482ZM115.733 150.315C113.549 150.315 111.578 150.786 109.846 151.757L110.824 153.502C112.218 152.72 113.844 152.315 115.733 152.315V150.315ZM109.841 151.76C108.123 152.738 106.785 154.164 105.826 156.002L107.6 156.927C108.394 155.404 109.47 154.272 110.83 153.498L109.841 151.76ZM105.824 156.007C104.884 157.834 104.424 159.996 104.399 162.456L106.399 162.476C106.422 160.249 106.837 158.41 107.602 156.922L105.824 156.007ZM162.812 191.55L162.303 192.41L162.309 192.414L162.812 191.55ZM153.544 181.678L152.654 182.135L152.655 182.137L153.544 181.678ZM153.544 152.168L154.432 152.627L154.433 152.625L153.544 152.168ZM162.812 142.295L163.318 143.158L163.319 143.157L162.812 142.295ZM191.399 142.295L190.89 143.156L190.896 143.16L191.399 142.295ZM200.703 152.168L199.813 152.625L199.814 152.627L200.703 152.168ZM200.703 181.678L201.591 182.137L201.592 182.135L200.703 181.678ZM191.399 191.55L191.904 192.413L191.906 192.412L191.399 191.55ZM183.48 181.216L184.125 181.98L184.131 181.974L183.48 181.216ZM187.279 175.321L186.336 174.989L186.334 174.997L187.279 175.321ZM187.279 158.347L186.333 158.671L186.336 158.679L187.279 158.347ZM170.802 152.452L170.161 151.684L170.156 151.689L170.802 152.452ZM166.931 158.347L165.988 158.014L165.986 158.022L166.931 158.347ZM166.931 175.321L165.985 175.645L165.988 175.653L166.931 175.321ZM170.802 181.216L170.156 181.979L170.161 181.984L170.167 181.988L170.802 181.216ZM177.123 194.065C171.751 194.065 167.161 192.925 163.315 190.686L162.309 192.414C166.512 194.862 171.463 196.065 177.123 196.065V194.065ZM163.321 190.689C159.485 188.419 156.526 185.269 154.432 181.218L152.655 182.137C154.918 186.514 158.137 189.945 162.303 192.41L163.321 190.689ZM154.433 181.22C152.339 177.147 151.277 172.396 151.277 166.94H149.277C149.277 172.659 150.392 177.733 152.654 182.135L154.433 181.22ZM151.277 166.94C151.277 161.436 152.34 156.674 154.432 152.627L152.655 151.708C150.391 156.089 149.277 161.176 149.277 166.94H151.277ZM154.433 152.625C156.527 148.551 159.485 145.403 163.318 143.158L162.307 141.433C158.137 143.875 154.917 147.309 152.654 151.71L154.433 152.625ZM163.319 143.157C167.164 140.896 171.753 139.744 177.123 139.744V137.744C171.461 137.744 166.509 138.96 162.305 141.434L163.319 143.157ZM177.123 139.744C182.494 139.744 187.069 140.896 190.89 143.156L191.908 141.435C187.726 138.96 182.785 137.744 177.123 137.744V139.744ZM190.896 143.16C194.751 145.405 197.72 148.553 199.813 152.625L201.592 151.71C199.329 147.307 196.096 143.873 191.902 141.431L190.896 143.16ZM199.814 152.627C201.906 156.674 202.97 161.436 202.97 166.94H204.97C204.97 161.176 203.855 156.089 201.591 151.708L199.814 152.627ZM202.97 166.94C202.97 172.396 201.907 177.147 199.813 181.22L201.592 182.135C203.854 177.733 204.97 172.659 204.97 166.94H202.97ZM199.814 181.218C197.722 185.268 194.751 188.418 190.892 190.688L191.906 192.412C196.096 189.947 199.328 186.515 201.591 182.137L199.814 181.218ZM190.893 190.687C187.072 192.925 182.495 194.065 177.123 194.065V196.065C182.783 196.065 187.723 194.862 191.904 192.413L190.893 190.687ZM177.194 184.347C179.905 184.347 182.239 183.574 184.125 181.98L182.834 180.452C181.359 181.699 179.503 182.347 177.194 182.347V184.347ZM184.131 181.974C185.97 180.394 187.326 178.268 188.225 175.645L186.334 174.997C185.528 177.346 184.351 179.149 182.828 180.457L184.131 181.974ZM188.223 175.653C189.143 173.042 189.593 170.097 189.593 166.834H187.593C187.593 169.915 187.168 172.629 186.336 174.989L188.223 175.653ZM189.593 166.834C189.593 163.571 189.143 160.626 188.223 158.014L186.336 158.679C187.168 161.039 187.593 163.752 187.593 166.834H189.593ZM188.225 158.022C187.326 155.4 185.97 153.273 184.131 151.693L182.828 153.21C184.351 154.518 185.528 156.322 186.334 158.671L188.225 158.022ZM184.131 151.693C182.245 150.073 179.909 149.286 177.194 149.286V151.286C179.498 151.286 181.353 151.943 182.828 153.21L184.131 151.693ZM177.194 149.286C174.458 149.286 172.092 150.071 170.161 151.684L171.443 153.219C172.969 151.944 174.864 151.286 177.194 151.286V149.286ZM170.156 151.689C168.293 153.267 166.913 155.391 165.988 158.014L167.875 158.679C168.702 156.33 169.902 154.525 171.449 153.215L170.156 151.689ZM165.986 158.022C165.091 160.632 164.653 163.573 164.653 166.834H166.653C166.653 163.75 167.067 161.033 167.877 158.671L165.986 158.022ZM164.653 166.834C164.653 170.094 165.091 173.036 165.986 175.645L167.877 174.997C167.067 172.634 166.653 169.918 166.653 166.834H164.653ZM165.988 175.653C166.913 178.276 168.293 180.401 170.156 181.979L171.449 180.453C169.902 179.143 168.702 177.337 167.875 174.989L165.988 175.653ZM170.167 181.988C172.098 183.575 174.462 184.347 177.194 184.347V182.347C174.86 182.347 172.963 181.697 171.437 180.443L170.167 181.988ZM262.901 139.455L263.845 139.785L264.31 138.455H262.901V139.455ZM243.831 194V195H244.541L244.775 194.33L243.831 194ZM226.786 194L225.842 194.33L226.076 195H226.786V194ZM207.716 139.455V138.455H206.307L206.772 139.785L207.716 139.455ZM223.696 139.455L224.657 139.176L224.447 138.455H223.696V139.455ZM235.025 178.482L234.064 178.76L234.273 179.482H235.025V178.482ZM235.593 178.482V179.482H236.344L236.553 178.759L235.593 178.482ZM246.885 139.455V138.455H246.134L245.925 139.177L246.885 139.455ZM261.957 139.125L242.887 193.67L244.775 194.33L263.845 139.785L261.957 139.125ZM243.831 193H226.786V195H243.831V193ZM227.73 193.67L208.66 139.125L206.772 139.785L225.842 194.33L227.73 193.67ZM207.716 140.455H223.696V138.455H207.716V140.455ZM222.736 139.733L234.064 178.76L235.985 178.203L224.657 139.176L222.736 139.733ZM235.025 179.482H235.593V177.482H235.025V179.482ZM236.553 178.759L247.846 139.732L245.925 139.177L234.632 178.204L236.553 178.759ZM246.885 140.455H262.901V138.455H246.885V140.455ZM275.428 193.219L275.016 194.13L275.022 194.133L275.428 193.219ZM268.964 187.786L268.125 188.329L268.131 188.338L268.964 187.786ZM268.29 171.131L267.41 170.655L268.29 171.131ZM272.835 166.159L272.288 165.322L272.835 166.159ZM279.369 163.318L279.118 162.35L279.116 162.351L279.369 163.318ZM287.111 161.969L287.207 162.964L287.215 162.963L287.111 161.969ZM294.781 161.045L294.926 162.035L294.938 162.033L294.781 161.045ZM299.007 159.696L298.447 158.867L299.007 159.696ZM298.19 151.635L297.529 152.385L297.535 152.391L298.19 151.635ZM285.726 151.599L286.318 152.405L286.326 152.399L285.726 151.599ZM282.53 156.074L282.449 157.071L283.263 157.137L283.49 156.352L282.53 156.074ZM268.538 154.938L267.561 154.728L267.322 155.842L268.457 155.934L268.538 154.938ZM272.729 146.344L273.486 146.997L273.489 146.993L272.729 146.344ZM280.79 140.733L281.158 141.663L281.161 141.661L280.79 140.733ZM300.996 139.81L300.747 140.778L300.749 140.779L300.996 139.81ZM308.418 143.112L307.848 143.934L307.853 143.937L308.418 143.112ZM313.567 148.865L312.685 149.337L312.687 149.341L313.567 148.865ZM315.449 194V195H316.449V194H315.449ZM301.102 194H300.102V195H301.102V194ZM301.102 186.436H302.102V185.436H301.102V186.436ZM300.676 186.436V185.436H300.066L299.787 185.979L300.676 186.436ZM297.161 190.946L297.817 191.7L297.824 191.694L297.161 190.946ZM291.869 193.964L292.195 194.91L292.205 194.906L291.869 193.964ZM294.959 183.276L295.416 184.165L295.426 184.16L294.959 183.276ZM298.972 179.653L298.13 179.114L298.972 179.653ZM300.428 168.716H301.428V166.873L299.883 167.877L300.428 168.716ZM298.474 169.568L298.757 170.528L298.765 170.525L298.774 170.522L298.474 169.568ZM295.74 170.243L295.923 171.226L295.934 171.224L295.945 171.222L295.74 170.243ZM292.686 170.776L292.824 171.766L292.836 171.764L292.847 171.763L292.686 170.776ZM289.916 171.166L289.775 170.176L289.771 170.177L289.916 171.166ZM285.264 172.409L285.658 173.328L285.264 172.409ZM282.175 174.717L282.965 175.33L282.972 175.32L282.175 174.717ZM283.311 182.991L282.721 183.799L282.729 183.804L282.736 183.81L283.311 182.991ZM284.732 194.03C281.368 194.03 278.408 193.447 275.833 192.305L275.022 194.133C277.892 195.406 281.135 196.03 284.732 196.03V194.03ZM275.84 192.308C273.281 191.151 271.276 189.46 269.798 187.233L268.131 188.338C269.826 190.893 272.129 192.825 275.016 194.13L275.84 192.308ZM269.804 187.242C268.37 185.026 267.621 182.22 267.621 178.766H265.621C265.621 182.509 266.434 185.716 268.125 188.329L269.804 187.242ZM267.621 178.766C267.621 175.854 268.156 173.483 269.17 171.606L267.41 170.655C266.199 172.898 265.621 175.617 265.621 178.766H267.621ZM269.17 171.606C270.205 169.689 271.607 168.158 273.383 166.996L272.288 165.322C270.228 166.67 268.6 168.453 267.41 170.655L269.17 171.606ZM273.383 166.996C275.202 165.806 277.278 164.9 279.623 164.285L279.116 162.351C276.583 163.015 274.304 164.003 272.288 165.322L273.383 166.996ZM279.621 164.286C282.029 163.661 284.557 163.22 287.207 162.964L287.015 160.973C284.267 161.239 281.634 161.697 279.118 162.35L279.621 164.286ZM287.215 162.963C290.393 162.631 292.965 162.322 294.926 162.035L294.636 160.056C292.714 160.337 290.173 160.643 287.007 160.974L287.215 162.963ZM294.938 162.033C296.92 161.719 298.506 161.242 299.567 160.525L298.447 158.867C297.757 159.334 296.525 159.757 294.625 160.058L294.938 162.033ZM299.567 160.525C300.748 159.726 301.321 158.522 301.321 157.068H299.321C299.321 157.934 299.018 158.482 298.447 158.867L299.567 160.525ZM301.321 157.068V156.855H299.321V157.068H301.321ZM301.321 156.855C301.321 154.379 300.528 152.338 298.845 150.879L297.535 152.391C298.694 153.394 299.321 154.834 299.321 156.855H301.321ZM298.852 150.885C297.212 149.44 294.954 148.788 292.224 148.788V150.788C294.655 150.788 296.375 151.368 297.529 152.385L298.852 150.885ZM292.224 148.788C289.361 148.788 286.961 149.423 285.126 150.799L286.326 152.399C287.711 151.361 289.643 150.788 292.224 150.788V148.788ZM285.133 150.794C283.359 152.099 282.156 153.77 281.569 155.796L283.49 156.352C283.946 154.779 284.873 153.468 286.318 152.405L285.133 150.794ZM282.611 155.077L268.619 153.941L268.457 155.934L282.449 157.071L282.611 155.077ZM269.516 155.147C270.194 151.986 271.519 149.277 273.486 146.997L271.972 145.691C269.772 148.24 268.304 151.26 267.561 154.728L269.516 155.147ZM273.489 146.993C275.456 144.691 278.003 142.911 281.158 141.663L280.422 139.803C276.995 141.159 274.168 143.119 271.968 145.694L273.489 146.993ZM281.161 141.661C284.335 140.392 288.039 139.744 292.295 139.744V137.744C287.839 137.744 283.874 138.422 280.418 139.804L281.161 141.661ZM292.295 139.744C295.247 139.744 298.063 140.09 300.747 140.778L301.244 138.841C298.388 138.109 295.405 137.744 292.295 137.744V139.744ZM300.749 140.779C303.439 141.463 305.801 142.517 307.848 143.934L308.987 142.29C306.725 140.724 304.14 139.577 301.242 138.84L300.749 140.779ZM307.853 143.937C309.897 145.337 311.506 147.134 312.685 149.337L314.448 148.393C313.118 145.909 311.294 143.87 308.983 142.287L307.853 143.937ZM312.687 149.341C313.847 151.485 314.449 154.095 314.449 157.21H316.449C316.449 153.838 315.796 150.885 314.446 148.389L312.687 149.341ZM314.449 157.21V194H316.449V157.21H314.449ZM315.449 193H301.102V195H315.449V193ZM302.102 194V186.436H300.102V194H302.102ZM301.102 185.436H300.676V187.436H301.102V185.436ZM299.787 185.979C298.969 187.571 297.874 188.976 296.497 190.198L297.824 191.694C299.382 190.312 300.632 188.71 301.566 186.893L299.787 185.979ZM296.504 190.192C295.141 191.379 293.49 192.325 291.534 193.023L292.205 194.906C294.368 194.136 296.244 193.07 297.817 191.7L296.504 190.192ZM291.543 193.019C289.61 193.686 287.345 194.03 284.732 194.03V196.03C287.516 196.03 290.009 195.664 292.195 194.91L291.543 193.019ZM289.064 185.589C291.423 185.589 293.549 185.124 295.416 184.165L294.502 182.386C292.96 183.179 291.156 183.589 289.064 183.589V185.589ZM295.426 184.16C297.272 183.186 298.743 181.864 299.814 180.193L298.13 179.114C297.259 180.473 296.055 181.566 294.492 182.391L295.426 184.16ZM299.814 180.193C300.894 178.506 301.428 176.6 301.428 174.504H299.428C299.428 176.244 298.99 177.771 298.13 179.114L299.814 180.193ZM301.428 174.504V168.716H299.428V174.504H301.428ZM299.883 167.877C299.514 168.117 298.958 168.368 298.175 168.614L298.774 170.522C299.648 170.247 300.394 169.931 300.973 169.554L299.883 167.877ZM298.192 168.609C297.418 168.837 296.533 169.055 295.535 169.264L295.945 171.222C296.983 171.004 297.921 170.773 298.757 170.528L298.192 168.609ZM295.557 169.26C294.547 169.448 293.536 169.624 292.525 169.789L292.847 171.763C293.872 171.596 294.898 171.417 295.923 171.226L295.557 169.26ZM292.548 169.785C291.529 169.927 290.605 170.058 289.775 170.176L290.058 172.156C290.885 172.038 291.807 171.908 292.824 171.766L292.548 169.785ZM289.771 170.177C287.93 170.447 286.292 170.881 284.87 171.49L285.658 173.328C286.888 172.801 288.351 172.406 290.061 172.156L289.771 170.177ZM284.87 171.49C283.414 172.114 282.234 172.981 281.377 174.114L282.972 175.32C283.584 174.512 284.462 173.841 285.658 173.328L284.87 171.49ZM281.384 174.105C280.491 175.258 280.074 176.669 280.074 178.268H282.074C282.074 177.027 282.391 176.071 282.965 175.33L281.384 174.105ZM280.074 178.268C280.074 180.605 280.94 182.498 282.721 183.799L283.901 182.184C282.7 181.307 282.074 180.051 282.074 178.268H280.074ZM282.736 183.81C284.458 185.02 286.59 185.589 289.064 185.589V183.589C286.897 183.589 285.195 183.093 283.886 182.173L282.736 183.81ZM356.198 139.455H357.198V138.455H356.198V139.455ZM356.198 150.818V151.818H357.198V150.818H356.198ZM323.35 150.818H322.35V151.818H323.35V150.818ZM323.35 139.455V138.455H322.35V139.455H323.35ZM330.808 126.386V125.386H329.808V126.386H330.808ZM345.935 126.386H346.935V125.386H345.935V126.386ZM346.575 180.506L345.697 180.985L345.703 180.996L346.575 180.506ZM348.35 182.104L347.974 183.03L347.984 183.034L348.35 182.104ZM353.18 182.388L353.344 183.374L353.36 183.372L353.376 183.368L353.18 182.388ZM354.813 182.068L355.792 181.861L355.59 180.905L354.629 181.085L354.813 182.068ZM357.192 193.325L357.491 194.28L358.359 194.008L358.171 193.118L357.192 193.325ZM353.996 194.142L353.778 193.166L353.77 193.168L353.762 193.17L353.996 194.142ZM348.989 194.746L348.953 193.746L348.95 193.746L348.989 194.746ZM339.401 193.29L339.023 194.215L339.026 194.217L339.401 193.29ZM333.045 188.105L333.885 187.562L333.045 188.105ZM330.808 179.227L331.808 179.234V179.227H330.808ZM355.198 139.455V150.818H357.198V139.455H355.198ZM356.198 149.818H323.35V151.818H356.198V149.818ZM324.35 150.818V139.455H322.35V150.818H324.35ZM323.35 140.455H356.198V138.455H323.35V140.455ZM330.808 127.386H345.935V125.386H330.808V127.386ZM344.935 126.386V177.239H346.935V126.386H344.935ZM344.935 177.239C344.935 178.716 345.157 179.996 345.697 180.985L347.452 180.027C347.14 179.453 346.935 178.554 346.935 177.239H344.935ZM345.703 180.996C346.233 181.937 346.993 182.632 347.974 183.03L348.727 181.177C348.192 180.96 347.769 180.589 347.446 180.015L345.703 180.996ZM347.984 183.034C348.904 183.396 349.931 183.565 351.049 183.565V181.565C350.131 181.565 349.359 181.426 348.717 181.173L347.984 183.034ZM351.049 183.565C351.815 183.565 352.58 183.501 353.344 183.374L353.015 181.401C352.359 181.511 351.703 181.565 351.049 181.565V183.565ZM353.376 183.368C354.085 183.227 354.625 183.121 354.997 183.051L354.629 181.085C354.244 181.157 353.695 181.265 352.984 181.407L353.376 183.368ZM353.835 182.275L356.214 193.532L358.171 193.118L355.792 181.861L353.835 182.275ZM356.894 192.371C356.175 192.595 355.141 192.861 353.778 193.166L354.215 195.118C355.598 194.808 356.694 194.529 357.491 194.28L356.894 192.371ZM353.762 193.17C352.474 193.481 350.875 193.677 348.953 193.746L349.025 195.745C351.033 195.673 352.773 195.466 354.231 195.114L353.762 193.17ZM348.95 193.746C345.414 193.884 342.365 193.412 339.777 192.363L339.026 194.217C341.93 195.393 345.273 195.891 349.028 195.745L348.95 193.746ZM339.78 192.364C337.236 191.324 335.282 189.725 333.885 187.562L332.205 188.648C333.837 191.173 336.122 193.03 339.023 194.215L339.78 192.364ZM333.885 187.562C332.501 185.422 331.785 182.668 331.807 179.234L329.808 179.221C329.783 182.936 330.558 186.1 332.205 188.648L333.885 187.562ZM331.808 179.227V126.386H329.808V179.227H331.808ZM366.053 194H365.053V195H366.053V194ZM366.053 139.455V138.455H365.053V139.455H366.053ZM381.18 139.455H382.18V138.455H381.18V139.455ZM381.18 194V195H382.18V194H381.18ZM367.864 130.186L367.173 130.909L367.178 130.914L367.184 130.92L367.864 130.186ZM367.864 119.391L368.549 120.119L368.549 120.119L367.864 119.391ZM379.405 119.391L378.714 120.114L378.72 120.119L378.725 120.124L379.405 119.391ZM379.405 130.186L380.09 130.915L380.09 130.914L379.405 130.186ZM367.053 194V139.455H365.053V194H367.053ZM366.053 140.455H381.18V138.455H366.053V140.455ZM380.18 139.455V194H382.18V139.455H380.18ZM381.18 193H366.053V195H381.18V193ZM373.652 131.423C371.648 131.423 369.963 130.768 368.543 129.453L367.184 130.92C368.984 132.587 371.158 133.423 373.652 133.423V131.423ZM368.554 129.463C367.157 128.128 366.484 126.574 366.484 124.753H364.484C364.484 127.145 365.398 129.214 367.173 130.909L368.554 129.463ZM366.484 124.753C366.484 122.959 367.153 121.431 368.549 120.119L367.179 118.662C365.402 120.333 364.484 122.38 364.484 124.753H366.484ZM368.549 120.119C369.97 118.782 371.653 118.118 373.652 118.118V116.118C371.153 116.118 368.977 116.969 367.178 118.662L368.549 120.119ZM373.652 118.118C375.651 118.118 377.319 118.781 378.714 120.114L380.096 118.668C378.318 116.97 376.151 116.118 373.652 116.118V118.118ZM378.725 120.124C380.143 121.438 380.82 122.964 380.82 124.753H382.82C382.82 122.375 381.886 120.326 380.084 118.657L378.725 120.124ZM380.82 124.753C380.82 126.569 380.14 128.121 378.719 129.458L380.09 130.914C381.89 129.221 382.82 127.15 382.82 124.753H380.82ZM378.72 129.458C377.326 130.768 375.656 131.423 373.652 131.423V133.423C376.146 133.423 378.312 132.587 380.09 130.915L378.72 129.458ZM403.632 191.55L403.123 192.41L403.129 192.414L403.632 191.55ZM394.364 181.678L393.475 182.135L393.476 182.137L394.364 181.678ZM394.364 152.168L395.252 152.627L395.253 152.625L394.364 152.168ZM403.632 142.295L404.138 143.158L404.139 143.157L403.632 142.295ZM432.219 142.295L431.71 143.156L431.716 143.16L432.219 142.295ZM441.523 152.168L440.634 152.625L440.635 152.627L441.523 152.168ZM441.523 181.678L442.411 182.137L442.412 182.135L441.523 181.678ZM432.219 191.55L432.725 192.413L432.726 192.412L432.219 191.55ZM424.3 181.216L424.946 181.98L424.952 181.974L424.3 181.216ZM428.1 175.321L427.157 174.989L427.154 174.997L428.1 175.321ZM428.1 158.347L427.154 158.671L427.157 158.679L428.1 158.347ZM411.623 152.452L410.981 151.684L410.976 151.689L411.623 152.452ZM407.752 158.347L406.809 158.014L406.806 158.022L407.752 158.347ZM407.752 175.321L406.806 175.645L406.809 175.653L407.752 175.321ZM411.623 181.216L410.976 181.979L410.982 181.984L410.988 181.988L411.623 181.216ZM417.944 194.065C412.571 194.065 407.981 192.925 404.136 190.686L403.129 192.414C407.333 194.862 412.283 196.065 417.944 196.065V194.065ZM404.142 190.689C400.306 188.419 397.346 185.269 395.252 181.218L393.476 182.137C395.738 186.514 398.957 189.945 403.123 192.41L404.142 190.689ZM395.253 181.22C393.16 177.147 392.097 172.396 392.097 166.94H390.097C390.097 172.659 391.212 177.733 393.475 182.135L395.253 181.22ZM392.097 166.94C392.097 161.436 393.16 156.674 395.252 152.627L393.476 151.708C391.212 156.089 390.097 161.176 390.097 166.94H392.097ZM395.253 152.625C397.347 148.551 400.306 145.403 404.138 143.158L403.127 141.433C398.957 143.875 395.737 147.309 393.475 151.71L395.253 152.625ZM404.139 143.157C407.985 140.896 412.573 139.744 417.944 139.744V137.744C412.282 137.744 407.33 138.96 403.125 141.434L404.139 143.157ZM417.944 139.744C423.314 139.744 427.89 140.896 431.71 143.156L432.728 141.435C428.547 138.96 423.605 137.744 417.944 137.744V139.744ZM431.716 143.16C435.572 145.405 438.541 148.553 440.634 152.625L442.412 151.71C440.149 147.307 436.916 143.873 432.722 141.431L431.716 143.16ZM440.635 152.627C442.727 156.674 443.79 161.436 443.79 166.94H445.79C445.79 161.176 444.675 156.089 442.411 151.708L440.635 152.627ZM443.79 166.94C443.79 172.396 442.727 177.147 440.634 181.22L442.412 182.135C444.675 177.733 445.79 172.659 445.79 166.94H443.79ZM440.635 181.218C438.542 185.268 435.571 188.418 431.712 190.688L432.726 192.412C436.916 189.947 440.148 186.515 442.411 182.137L440.635 181.218ZM431.714 190.687C427.893 192.925 423.316 194.065 417.944 194.065V196.065C423.603 196.065 428.544 194.862 432.725 192.413L431.714 190.687ZM418.015 184.347C420.725 184.347 423.059 183.574 424.946 181.98L423.655 180.452C422.179 181.699 420.323 182.347 418.015 182.347V184.347ZM424.952 181.974C426.791 180.394 428.147 178.268 429.046 175.645L427.154 174.997C426.348 177.346 425.171 179.149 423.648 180.457L424.952 181.974ZM429.043 175.653C429.963 173.042 430.414 170.097 430.414 166.834H428.414C428.414 169.915 427.988 172.629 427.157 174.989L429.043 175.653ZM430.414 166.834C430.414 163.571 429.963 160.626 429.043 158.014L427.157 158.679C427.988 161.039 428.414 163.752 428.414 166.834H430.414ZM429.046 158.022C428.147 155.4 426.791 153.273 424.952 151.693L423.648 153.21C425.171 154.518 426.348 156.322 427.154 158.671L429.046 158.022ZM424.952 151.693C423.065 150.073 420.729 149.286 418.015 149.286V151.286C420.319 151.286 422.173 151.943 423.648 153.21L424.952 151.693ZM418.015 149.286C415.278 149.286 412.912 150.071 410.981 151.684L412.264 153.219C413.79 151.944 415.685 151.286 418.015 151.286V149.286ZM410.976 151.689C409.114 153.267 407.733 155.391 406.809 158.014L408.695 158.679C409.523 156.33 410.722 154.525 412.269 153.215L410.976 151.689ZM406.806 158.022C405.911 160.632 405.473 163.573 405.473 166.834H407.473C407.473 163.75 407.888 161.033 408.698 158.671L406.806 158.022ZM405.473 166.834C405.473 170.094 405.911 173.036 406.806 175.645L408.698 174.997C407.888 172.634 407.473 169.918 407.473 166.834H405.473ZM406.809 175.653C407.733 178.276 409.114 180.401 410.976 181.979L412.269 180.453C410.722 179.143 409.523 177.337 408.695 174.989L406.809 175.653ZM410.988 181.988C412.918 183.575 415.282 184.347 418.015 184.347V182.347C415.681 182.347 413.783 181.697 412.257 180.443L410.988 181.988ZM469.755 162.466L468.755 162.456V162.466H469.755ZM469.755 194V195H470.755V194H469.755ZM454.627 194H453.627V195H454.627V194ZM454.627 139.455V138.455H453.627V139.455H454.627ZM469.044 139.455H470.044V138.455H469.044V139.455ZM469.044 149.078H468.044V150.078H469.044V149.078ZM469.684 149.078V150.078H470.373L470.618 149.434L469.684 149.078ZM475.756 141.55L476.301 142.388L476.306 142.385L475.756 141.55ZM495.998 141.23L496.505 140.368L495.998 141.23ZM502.567 148.332L501.675 148.785L501.677 148.788L502.567 148.332ZM504.911 194V195H505.911V194H504.911ZM489.783 194H488.783V195H489.783V194ZM489.783 161.969L488.783 161.962V161.969H489.783ZM487.226 154.156L486.488 154.83L486.492 154.835L487.226 154.156ZM474.691 152.629L474.202 151.757L474.196 151.76L474.691 152.629ZM471.069 156.464L470.182 156.002L470.179 156.007L471.069 156.464ZM468.755 162.466V194H470.755V162.466H468.755ZM469.755 193H454.627V195H469.755V193ZM455.627 194V139.455H453.627V194H455.627ZM454.627 140.455H469.044V138.455H454.627V140.455ZM468.044 139.455V149.078H470.044V139.455H468.044ZM469.044 150.078H469.684V148.078H469.044V150.078ZM470.618 149.434C471.75 146.459 473.638 144.119 476.301 142.388L475.211 140.711C472.192 142.674 470.032 145.352 468.749 148.722L470.618 149.434ZM476.306 142.385C478.955 140.641 482.199 139.744 486.09 139.744V137.744C481.884 137.744 478.239 138.718 475.206 140.714L476.306 142.385ZM486.09 139.744C489.728 139.744 492.85 140.539 495.491 142.092L496.505 140.368C493.511 138.607 490.027 137.744 486.09 137.744V139.744ZM495.491 142.092C498.134 143.647 500.194 145.868 501.675 148.785L503.459 147.88C501.815 144.642 499.496 142.128 496.505 140.368L495.491 142.092ZM501.677 148.788C503.152 151.672 503.911 155.154 503.911 159.27H505.911C505.911 154.91 505.107 151.101 503.457 147.877L501.677 148.788ZM503.911 159.27V194H505.911V159.27H503.911ZM504.911 193H489.783V195H504.911V193ZM490.783 194V161.969H488.783V194H490.783ZM490.783 161.976C490.808 158.465 489.909 155.587 487.961 153.478L486.492 154.835C487.999 156.466 488.806 158.796 488.783 161.962L490.783 161.976ZM487.965 153.482C486.013 151.343 483.344 150.315 480.088 150.315V152.315C482.893 152.315 484.983 153.182 486.488 154.83L487.965 153.482ZM480.088 150.315C477.905 150.315 475.933 150.786 474.202 151.757L475.18 153.502C476.573 152.72 478.2 152.315 480.088 152.315V150.315ZM474.196 151.76C472.478 152.738 471.14 154.164 470.182 156.002L471.955 156.927C472.749 155.404 473.826 154.272 475.185 153.498L474.196 151.76ZM470.179 156.007C469.24 157.834 468.78 159.996 468.755 162.456L470.755 162.476C470.777 160.249 471.193 158.41 471.958 156.922L470.179 156.007Z" fill="black" fill-opacity="0.1" mask="url(#path-1-outside-1_638_3254)"/>
</svg>
