<svg width="91" height="79" viewBox="0 0 91 79" fill="none" xmlns="http://www.w3.org/2000/svg">
<path d="M1 78C46.5 51 39 18.3064 14 30C-11 41.6936 39.5 68.5 58 27" stroke="black" stroke-opacity="0.7"/>
<path d="M52.0454 8.24109L88.9129 0.135887L89.392 0.0307994C89.636 -0.0232082 89.89 -0.00593612 90.1248 0.0806299C90.3596 0.167196 90.5656 0.319536 90.7192 0.520139C90.8729 0.720743 90.9678 0.961459 90.9931 1.21461C91.0185 1.46775 90.9732 1.72305 90.8625 1.95114L76.2246 32.2465C76.1299 32.4411 75.9906 32.6097 75.8186 32.7381C75.6466 32.8664 75.4469 32.9508 75.2362 32.984C75.0249 33.0175 74.8087 32.9981 74.6064 32.9274C74.4041 32.8567 74.2217 32.7369 74.075 32.5783L63.9078 21.6526C63.8355 21.5729 63.7478 21.5093 63.6502 21.4659C63.5526 21.4225 63.4472 21.4001 63.3407 21.4002C63.1959 21.3981 63.0533 21.4361 62.9282 21.5103C62.803 21.5845 62.7 21.6919 62.6301 21.8212L60.5476 25.7469C60.4147 26.0087 60.1996 26.2176 59.9367 26.3404C59.6738 26.4631 59.3781 26.4928 59.0968 26.4245L59.0864 26.4221C58.8017 26.3607 58.5455 26.2034 58.359 25.9756C58.1725 25.7478 58.0666 25.4627 58.0583 25.1662L57.6412 16.1043C57.6362 15.9912 57.6085 15.8804 57.5598 15.7787C57.5074 15.6781 57.4364 15.5887 57.3507 15.5157L51.4852 10.6086C51.2924 10.4473 51.1481 10.2339 51.0688 9.99292C50.9896 9.7519 50.9785 9.49299 51.037 9.24587C51.0955 8.99875 51.2211 8.77342 51.3994 8.59571C51.5777 8.418 51.8016 8.29509 52.0454 8.24109ZM51.8202 10.1915L57.6857 15.0985C57.7621 15.1613 57.8314 15.2326 57.8921 15.3111L88.9795 0.942477C89.0069 0.929476 89.0355 0.919255 89.0649 0.911946C89.1848 0.880448 89.3118 0.892648 89.4238 0.946436C89.5358 1.00022 89.6259 1.09222 89.6784 1.20651C89.7309 1.3208 89.7425 1.45019 89.7114 1.57232C89.6802 1.69445 89.6081 1.80163 89.5075 1.87533L63.9467 21.011C64.0765 21.0797 64.1936 21.1707 64.2929 21.28L74.46 32.2056C74.5482 32.3002 74.6575 32.3717 74.7787 32.414C74.8998 32.4564 75.0292 32.4683 75.1558 32.4487C75.2824 32.4292 75.4026 32.3788 75.506 32.3018C75.6094 32.2248 75.6931 32.1235 75.7498 32.0065L90.3878 1.71124C90.4532 1.57435 90.4796 1.42149 90.4639 1.27006C90.4483 1.11863 90.3912 0.974726 90.2992 0.854742C90.2073 0.734758 90.084 0.643522 89.9437 0.591421C89.8033 0.53932 89.6513 0.528451 89.5052 0.560056L89.0147 0.66808L52.1587 8.77038C52.0123 8.80267 51.8779 8.8763 51.7707 8.98285C51.6635 9.0894 51.5879 9.22456 51.5526 9.37285C51.5173 9.52114 51.5236 9.67656 51.571 9.82134C51.6183 9.96611 51.7046 10.0944 51.8202 10.1915Z" fill="url(#paint0_linear_638_3037)"/>
<path d="M52.0454 8.24109L88.9129 0.135887L89.392 0.0307994C89.636 -0.0232082 89.89 -0.00593612 90.1248 0.0806299C90.3596 0.167196 90.5656 0.319536 90.7192 0.520139C90.8729 0.720743 90.9678 0.961459 90.9931 1.21461C91.0185 1.46775 90.9732 1.72305 90.8625 1.95114L76.2246 32.2465C76.1299 32.4411 75.9906 32.6097 75.8186 32.7381C75.6466 32.8664 75.4469 32.9508 75.2362 32.984C75.0249 33.0175 74.8087 32.9981 74.6064 32.9274C74.4041 32.8567 74.2217 32.7369 74.075 32.5783L63.9078 21.6526C63.8355 21.5729 63.7478 21.5093 63.6502 21.4659C63.5526 21.4225 63.4472 21.4001 63.3407 21.4002C63.1959 21.3981 63.0533 21.4361 62.9282 21.5103C62.803 21.5845 62.7 21.6919 62.6301 21.8212L60.5476 25.7469C60.4147 26.0087 60.1996 26.2176 59.9367 26.3404C59.6738 26.4631 59.3781 26.4928 59.0968 26.4245L59.0864 26.4221C58.8017 26.3607 58.5455 26.2034 58.359 25.9756C58.1725 25.7478 58.0666 25.4627 58.0583 25.1662L57.6412 16.1043C57.6362 15.9912 57.6085 15.8804 57.5598 15.7787C57.5074 15.6781 57.4364 15.5887 57.3507 15.5157L51.4852 10.6086C51.2924 10.4473 51.1481 10.2339 51.0688 9.99292C50.9896 9.7519 50.9785 9.49299 51.037 9.24587C51.0955 8.99875 51.2211 8.77342 51.3994 8.59571C51.5777 8.418 51.8016 8.29509 52.0454 8.24109ZM51.8202 10.1915L57.6857 15.0985C57.7621 15.1613 57.8314 15.2326 57.8921 15.3111C57.9469 15.381 57.9943 15.4566 58.0333 15.5367C58.0742 15.6187 58.1065 15.7048 58.1295 15.7937L58.1289 15.7963C58.1532 15.8889 58.1672 15.984 58.1707 16.0798L58.5877 25.1417C58.5912 25.3198 58.6541 25.4915 58.7661 25.6284C58.878 25.7653 59.0323 25.8593 59.2037 25.895L59.2088 25.8962C59.3777 25.9389 59.5557 25.9223 59.7141 25.849C59.8725 25.7757 60.0019 25.65 60.0814 25.4923L62.1645 21.564C62.2719 21.3619 62.4281 21.1912 62.6183 21.0679C62.8086 20.9447 63.0266 20.873 63.2517 20.8597L63.2542 20.8603C63.2845 20.8588 63.3147 20.8573 63.3442 20.8585C63.5543 20.8586 63.7611 20.9109 63.9467 21.011C64.0765 21.0797 64.1936 21.1707 64.2929 21.28L74.46 32.2056C74.5482 32.3002 74.6575 32.3717 74.7787 32.414C74.8998 32.4564 75.0292 32.4683 75.1558 32.4487C75.2824 32.4292 75.4026 32.3788 75.506 32.3018C75.6094 32.2248 75.6931 32.1235 75.7498 32.0065L90.3878 1.71124C90.4532 1.57435 90.4796 1.42149 90.4639 1.27006C90.4483 1.11863 90.3912 0.974726 90.2992 0.854742C90.2073 0.734758 90.084 0.643522 89.9437 0.591421C89.8033 0.53932 89.6513 0.528451 89.5052 0.560056L89.0147 0.66808L52.1587 8.77038C52.0123 8.80267 51.8779 8.8763 51.7707 8.98285C51.6635 9.0894 51.5879 9.22456 51.5526 9.37285C51.5173 9.52114 51.5236 9.67656 51.571 9.82134C51.6183 9.96611 51.7046 10.0944 51.8202 10.1915Z" fill="black" fill-opacity="0.7"/>
<path d="M57.7745 15.3648L57.9936 15.8571L58.129 15.7963L58.1295 15.7937L89.1923 1.43886L63.2543 20.8603L63.2517 20.8597L63.183 20.9134L63.4958 21.3493L63.9468 21.0109L89.5076 1.87528C89.6081 1.80159 89.6802 1.69441 89.7114 1.57228C89.7426 1.45016 89.7309 1.32076 89.6784 1.20647C89.6259 1.09218 89.5358 1.00018 89.4238 0.946394C89.3118 0.892605 89.1849 0.880406 89.065 0.911903C89.0356 0.919212 89.007 0.929442 88.9796 0.942443L57.8922 15.3111L57.7745 15.3648Z" fill="black" fill-opacity="0.7"/>
<defs>
<linearGradient id="paint0_linear_638_3037" x1="90" y1="1" x2="58.441" y2="21.6455" gradientUnits="userSpaceOnUse">
<stop stop-color="#8089FE"/>
<stop offset="1" stop-color="#FFADC2"/>
</linearGradient>
</defs>
</svg>
