<svg width="62" height="68" viewBox="0 0 62 68" fill="none" xmlns="http://www.w3.org/2000/svg">
<path d="M20.5043 0.295712C20.5 0.102568 20.5 0 20.5 0C20.5016 0.0988962 20.5031 0.197466 20.5043 0.295712C20.573 3.37812 21.7383 29.5295 41.5 30C34.5042 31.4991 21.0164 29.5024 20.5009 59.9445C20.6678 49.9244 20.9612 29.5009 0 30C0 30 20.8594 29.5033 20.5043 0.295712Z" fill="url(#paint0_linear_638_3188)"/>
<path d="M48.3401 1.19221C48.3373 1.06667 48.3373 1 48.3373 1C48.3384 1.06428 48.3394 1.12835 48.3401 1.19221C48.3848 3.19577 49.143 20.1942 62 20.5C57.4485 21.4744 48.6733 20.1766 48.3379 39.9639C48.4465 33.4508 48.6374 20.1756 35 20.5C35 20.5 48.5712 20.1772 48.3401 1.19221Z" fill="url(#paint1_linear_638_3188)"/>
<path d="M37.8816 39.1429C37.8795 39.0496 37.8795 39 37.8795 39C37.8803 39.0478 37.881 39.0954 37.8816 39.1429C37.9147 40.6328 38.4763 53.2726 48 53.5C44.6265 54.225 38.1205 53.2583 37.8795 68C37.9598 63.1667 38.1205 53.2583 28 53.5C28 53.5 38.0527 53.2599 37.8816 39.1429Z" fill="url(#paint2_linear_638_3188)"/>
<defs>
<linearGradient id="paint0_linear_638_3188" x1="3" y1="13" x2="33.1738" y2="10.6474" gradientUnits="userSpaceOnUse">
<stop stop-color="#8089FE"/>
<stop offset="1" stop-color="#FFADC2"/>
</linearGradient>
<linearGradient id="paint1_linear_638_3188" x1="37" y1="8" x2="57.4739" y2="7.47681" gradientUnits="userSpaceOnUse">
<stop stop-color="#8089FE"/>
<stop offset="1" stop-color="#FFADC2"/>
</linearGradient>
<linearGradient id="paint2_linear_638_3188" x1="30.5" y1="44.5" x2="46.9836" y2="44.1729" gradientUnits="userSpaceOnUse">
<stop stop-color="#8089FE"/>
<stop offset="1" stop-color="#FFADC2"/>
</linearGradient>
</defs>
</svg>
